<svg width="1204" height="199" viewBox="0 0 1204 199" fill="none" xmlns="http://www.w3.org/2000/svg">
<path d="M19.2641 62.5173H6.70302H-7V196.946H1208V75.6078L1128.64 35.8328L1082.96 42.3782L1053.27 35.8328L1020.73 42.3782L979.5 9.58871L925.948 42.3782L850.009 50.4338L812.897 35.8328L759.798 46.9094H726.11L672.441 30.7981L641 27.0277L622.768 12.1694L603.355 1.09277L554.823 35.8328H531.985L513.144 43.3851H485.737L456.048 55.4686L410.371 50.4338L371.546 58.4895L280.193 43.3851L225.5 11.8245L195.12 39.8607L132.314 55.4686H90.0626L36.9638 65.0347L19.2641 62.5173Z" fill="url(#paint0_linear_214_4)"/>
<path d="M18.2857 64.0386H5.7143H-8V202H1208V77.473L1128.57 36.6529L1082.86 43.3702L1053.14 36.6529L1020.57 43.3702L977.5 10.1781L925.716 43.3702L849.715 51.6375L812.572 36.6529L759.429 48.0205H725.714L672 31.4859L641 27.1575L622.286 12.3676L602.858 1L554.285 36.6529H531.429L512.572 44.4036H485.143L455.429 56.8047L409.714 51.6375L370.857 59.9049L279.429 44.4036L224.5 11.0959L194.286 40.7866L131.428 56.8047H89.1424L36 66.6221L18.2857 64.0386Z" stroke="#99E39E" stroke-width="1.5"/>
<defs>
<linearGradient id="paint0_linear_214_4" x1="600.5" y1="-876.607" x2="600.5" y2="169.834" gradientUnits="userSpaceOnUse">
<stop stop-color="#99E39E"/>
<stop offset="1" stop-color="#99E39E" stop-opacity="0"/>
</linearGradient>
</defs>
</svg>
