<svg width="243" height="145" viewBox="0 0 243 145" fill="none" xmlns="http://www.w3.org/2000/svg">
<path d="M45.24 113.5V96.34H3V86.98L38.52 29.5H57.12V85.9H69.12V96.34H57.12V113.5H45.24ZM16.08 85.9H45.84V37.42H45.36L16.08 85.9Z" fill="#99E39E"/>
<path d="M166.992 78.2895C163.94 99.6085 145.742 115.025 124.845 115.207L123.417 108.27L122.701 104.784L121.505 98.9712L127.418 90.434L133.781 81.2495L116.116 61.8449L129.612 50.2505L132.28 47.9583L129.979 40.0398L128.919 36.3914L126.845 29.2516C128.062 29.3217 129.284 29.4437 130.513 29.6195C154.026 32.9857 170.358 54.7762 166.992 78.2895Z" fill="#99E39E"/>
<path d="M119.121 99.6513L124.845 115.208C122.722 115.546 120.547 115.731 118.33 115.747C94.5777 115.925 75.1791 96.814 75.0011 73.0617C74.8325 50.5503 91.9898 31.9481 114.004 29.915L122.168 47.6021L108.256 63.7438L128.618 80.297L119.121 99.6513Z" fill="#99E39E"/>
<path d="M159.322 63.0011C158.132 58.4903 156.103 54.3011 153.293 50.5515C150.482 46.802 147.032 43.6793 143.035 41.271C138.897 38.7779 134.354 37.1633 129.532 36.4729C129.328 36.4437 129.123 36.4164 128.92 36.391L129.98 40.0394C133.994 40.7298 137.782 42.1371 141.253 44.229C144.866 46.4068 147.987 49.2308 150.529 52.6227C153.072 56.0146 154.907 59.803 155.983 63.8818C157.097 68.1049 157.346 72.4567 156.721 76.8187C156.097 81.1806 154.637 85.2879 152.383 89.0288C150.206 92.642 147.381 95.7631 143.989 98.3054C140.597 100.848 136.809 102.683 132.73 103.759C129.447 104.626 126.085 104.968 122.701 104.783L123.418 108.27C126.856 108.371 130.27 107.98 133.611 107.098C138.123 105.908 142.311 103.879 146.06 101.069C149.81 98.2583 152.933 94.8067 155.341 90.811C157.835 86.6723 159.449 82.1291 160.139 77.3079C160.829 72.4869 160.555 67.6733 159.322 63.0011Z" fill="#6FD776"/>
<path d="M122.4 108.56C121.041 108.725 119.666 108.813 118.279 108.823C113.408 108.86 108.675 107.941 104.212 106.093C99.9009 104.307 96.022 101.734 92.6839 98.4456C89.3458 95.1571 86.7157 91.3173 84.866 87.0344C82.9503 82.5984 81.9604 77.8795 81.9238 73.0094C81.8873 68.1392 82.8065 63.406 84.6556 58.9417C86.4408 54.6316 89.0132 50.7529 92.3016 47.4148C95.5901 44.0767 99.4299 41.4456 103.714 39.5959C107.961 37.7618 112.468 36.7763 117.12 36.6651L118.713 40.1146C118.397 40.1074 118.081 40.105 117.764 40.1073C113.358 40.1403 109.091 41.0353 105.082 42.7664C101.209 44.4392 97.7366 46.8184 94.7617 49.8382C91.7868 52.8579 89.46 56.3655 87.8453 60.2628C86.1744 64.2981 85.3445 68.5772 85.3775 72.9834C85.4105 77.3897 86.3045 81.6558 88.0357 85.6656C89.7085 89.5383 92.0877 93.0105 95.1074 95.9854C98.1272 98.9603 101.635 101.287 105.533 102.902C109.567 104.573 113.847 105.404 118.253 105.371C119.233 105.363 120.205 105.313 121.171 105.22L122.4 108.56Z" fill="#6FD776"/>
<path d="M214.672 113.5V96.34H172.432V86.98L207.952 29.5H226.552V85.9H238.552V96.34H226.552V113.5H214.672ZM185.512 85.9H215.272V37.42H214.792L185.512 85.9Z" fill="#99E39E"/>
</svg>
