<svg width="469" height="197" viewBox="0 0 469 197" fill="none" xmlns="http://www.w3.org/2000/svg">
<line x1="413" y1="11.2349" x2="-4.37114e-08" y2="11.2348" stroke="white" stroke-opacity="0.1" stroke-dasharray="4 4"/>
<path d="M432.57 16.9529V4.66086H433.536V16.9529H432.57ZM433.172 15.9029C432.453 15.9029 431.828 15.7722 431.296 15.5109C430.764 15.2495 430.353 14.8855 430.064 14.4189C429.775 13.9522 429.63 13.4109 429.63 12.7949H430.862C430.862 13.1775 430.951 13.5322 431.128 13.8589C431.305 14.1762 431.562 14.4329 431.898 14.6289C432.243 14.8155 432.668 14.9089 433.172 14.9089C433.611 14.9089 433.984 14.8389 434.292 14.6989C434.609 14.5495 434.847 14.3489 435.006 14.0969C435.174 13.8449 435.258 13.5602 435.258 13.2429C435.258 12.8602 435.174 12.5522 435.006 12.3189C434.847 12.0762 434.628 11.8802 434.348 11.7309C434.068 11.5815 433.741 11.4509 433.368 11.3389C433.004 11.2175 432.621 11.0915 432.22 10.9609C431.445 10.6995 430.876 10.3729 430.512 9.98086C430.148 9.58886 429.966 9.0802 429.966 8.45486C429.966 7.92286 430.087 7.4562 430.33 7.05486C430.582 6.65353 430.937 6.34086 431.394 6.11686C431.861 5.88353 432.411 5.76686 433.046 5.76686C433.671 5.76686 434.213 5.88353 434.67 6.11686C435.137 6.3502 435.501 6.6722 435.762 7.08286C436.023 7.4842 436.154 7.95086 436.154 8.48286H434.922C434.922 8.2122 434.852 7.9462 434.712 7.68486C434.572 7.42353 434.357 7.20886 434.068 7.04086C433.788 6.86353 433.433 6.77486 433.004 6.77486C432.649 6.76553 432.332 6.8262 432.052 6.95686C431.781 7.0782 431.567 7.25553 431.408 7.48886C431.259 7.7222 431.184 8.00686 431.184 8.34286C431.184 8.6602 431.249 8.91686 431.38 9.11286C431.52 9.30886 431.716 9.47686 431.968 9.61686C432.229 9.74753 432.533 9.86886 432.878 9.98086C433.223 10.0929 433.606 10.2189 434.026 10.3589C434.502 10.5175 434.922 10.7135 435.286 10.9469C435.659 11.1709 435.949 11.4602 436.154 11.8149C436.369 12.1695 436.476 12.6222 436.476 13.1729C436.476 13.6395 436.35 14.0829 436.098 14.5029C435.855 14.9135 435.491 15.2495 435.006 15.5109C434.521 15.7722 433.909 15.9029 433.172 15.9029ZM441.223 15.9029C440.598 15.9029 440.028 15.7909 439.515 15.5669C439.011 15.3335 438.61 14.9882 438.311 14.5309C438.012 14.0735 437.854 13.5042 437.835 12.8229H439.025C439.034 13.1962 439.123 13.5415 439.291 13.8589C439.468 14.1669 439.72 14.4142 440.047 14.6009C440.374 14.7875 440.766 14.8809 441.223 14.8809C441.68 14.8809 442.063 14.7922 442.371 14.6149C442.679 14.4375 442.912 14.2042 443.071 13.9149C443.23 13.6162 443.309 13.2849 443.309 12.9209C443.309 12.4635 443.197 12.0949 442.973 11.8149C442.758 11.5255 442.464 11.3155 442.091 11.1849C441.727 11.0449 441.326 10.9749 440.887 10.9749H440.159V9.98086H440.887C441.531 9.98086 442.035 9.83153 442.399 9.53286C442.763 9.2342 442.945 8.82353 442.945 8.30086C442.945 7.87153 442.8 7.5122 442.511 7.22286C442.231 6.93353 441.802 6.78886 441.223 6.78886C440.672 6.78886 440.234 6.94753 439.907 7.26486C439.58 7.5822 439.394 7.9882 439.347 8.48286H438.157C438.185 7.95086 438.33 7.47953 438.591 7.06886C438.852 6.6582 439.207 6.34086 439.655 6.11686C440.103 5.88353 440.63 5.76686 441.237 5.76686C441.872 5.76686 442.404 5.87886 442.833 6.10286C443.262 6.32686 443.584 6.62553 443.799 6.99886C444.023 7.3722 444.135 7.78286 444.135 8.23086C444.135 8.56686 444.074 8.8842 443.953 9.18286C443.832 9.4722 443.65 9.72886 443.407 9.95286C443.164 10.1769 442.856 10.3355 442.483 10.4289C442.866 10.5035 443.206 10.6482 443.505 10.8629C443.813 11.0775 444.056 11.3575 444.233 11.7029C444.41 12.0482 444.499 12.4542 444.499 12.9209C444.499 13.4529 444.373 13.9475 444.121 14.4049C443.878 14.8529 443.514 15.2169 443.029 15.4969C442.544 15.7675 441.942 15.9029 441.223 15.9029ZM449.649 15.9029C449.014 15.9029 448.445 15.7862 447.941 15.5529C447.437 15.3102 447.035 14.9789 446.737 14.5589C446.438 14.1295 446.289 13.6349 446.289 13.0749C446.289 12.6735 446.368 12.3002 446.527 11.9549C446.685 11.6095 446.905 11.3109 447.185 11.0589C447.474 10.7975 447.805 10.6155 448.179 10.5129C447.656 10.3262 447.25 10.0369 446.961 9.64486C446.681 9.25286 446.541 8.8282 446.541 8.37086C446.541 7.88553 446.667 7.44686 446.919 7.05486C447.171 6.66286 447.525 6.3502 447.983 6.11686C448.449 5.88353 449.005 5.76686 449.649 5.76686C450.302 5.76686 450.857 5.88353 451.315 6.11686C451.781 6.3502 452.136 6.66286 452.379 7.05486C452.631 7.44686 452.757 7.88553 452.757 8.37086C452.757 8.8282 452.612 9.25286 452.323 9.64486C452.043 10.0369 451.641 10.3262 451.119 10.5129C451.501 10.6155 451.833 10.7975 452.113 11.0589C452.402 11.3109 452.621 11.6095 452.771 11.9549C452.929 12.3002 453.009 12.6735 453.009 13.0749C453.009 13.6349 452.859 14.1295 452.561 14.5589C452.271 14.9789 451.87 15.3102 451.357 15.5529C450.853 15.7862 450.283 15.9029 449.649 15.9029ZM449.649 14.8669C450.386 14.8669 450.932 14.6989 451.287 14.3629C451.651 14.0175 451.833 13.5649 451.833 13.0049C451.833 12.3702 451.632 11.8895 451.231 11.5629C450.839 11.2362 450.311 11.0729 449.649 11.0729C448.986 11.0729 448.454 11.2362 448.053 11.5629C447.661 11.8895 447.465 12.3702 447.465 13.0049C447.465 13.5649 447.647 14.0175 448.011 14.3629C448.375 14.6989 448.921 14.8669 449.649 14.8669ZM449.649 10.0929C450.237 10.0929 450.703 9.93886 451.049 9.63086C451.394 9.32286 451.567 8.9262 451.567 8.44086C451.567 7.8902 451.394 7.47486 451.049 7.19486C450.713 6.91486 450.246 6.77486 449.649 6.77486C449.061 6.77486 448.594 6.91486 448.249 7.19486C447.913 7.47486 447.745 7.8902 447.745 8.44086C447.745 8.9262 447.913 9.32286 448.249 9.63086C448.594 9.93886 449.061 10.0929 449.649 10.0929ZM454.96 15.7349V5.93486H456.136V10.3729L460.224 5.93486H461.708L458.068 9.84086L461.764 15.7349H460.336L457.228 10.7509L456.136 11.9129V15.7349H454.96Z" fill="white" fill-opacity="0.4"/>
<line x1="413" y1="47.2349" x2="-4.37114e-08" y2="47.2348" stroke="white" stroke-opacity="0.1" stroke-dasharray="4 4"/>
<path d="M432.57 52.9529V40.6609H433.536V52.9529H432.57ZM433.172 51.9029C432.453 51.9029 431.828 51.7722 431.296 51.5109C430.764 51.2495 430.353 50.8855 430.064 50.4189C429.775 49.9522 429.63 49.4109 429.63 48.7949H430.862C430.862 49.1775 430.951 49.5322 431.128 49.8589C431.305 50.1762 431.562 50.4329 431.898 50.6289C432.243 50.8155 432.668 50.9089 433.172 50.9089C433.611 50.9089 433.984 50.8389 434.292 50.6989C434.609 50.5495 434.847 50.3489 435.006 50.0969C435.174 49.8449 435.258 49.5602 435.258 49.2429C435.258 48.8602 435.174 48.5522 435.006 48.3189C434.847 48.0762 434.628 47.8802 434.348 47.7309C434.068 47.5815 433.741 47.4509 433.368 47.3389C433.004 47.2175 432.621 47.0915 432.22 46.9609C431.445 46.6995 430.876 46.3729 430.512 45.9809C430.148 45.5889 429.966 45.0802 429.966 44.4549C429.966 43.9229 430.087 43.4562 430.33 43.0549C430.582 42.6535 430.937 42.3409 431.394 42.1169C431.861 41.8835 432.411 41.7669 433.046 41.7669C433.671 41.7669 434.213 41.8835 434.67 42.1169C435.137 42.3502 435.501 42.6722 435.762 43.0829C436.023 43.4842 436.154 43.9509 436.154 44.4829H434.922C434.922 44.2122 434.852 43.9462 434.712 43.6849C434.572 43.4235 434.357 43.2089 434.068 43.0409C433.788 42.8635 433.433 42.7749 433.004 42.7749C432.649 42.7655 432.332 42.8262 432.052 42.9569C431.781 43.0782 431.567 43.2555 431.408 43.4889C431.259 43.7222 431.184 44.0069 431.184 44.3429C431.184 44.6602 431.249 44.9169 431.38 45.1129C431.52 45.3089 431.716 45.4769 431.968 45.6169C432.229 45.7475 432.533 45.8689 432.878 45.9809C433.223 46.0929 433.606 46.2189 434.026 46.3589C434.502 46.5175 434.922 46.7135 435.286 46.9469C435.659 47.1709 435.949 47.4602 436.154 47.8149C436.369 48.1695 436.476 48.6222 436.476 49.1729C436.476 49.6395 436.35 50.0829 436.098 50.5029C435.855 50.9135 435.491 51.2495 435.006 51.5109C434.521 51.7722 433.909 51.9029 433.172 51.9029ZM441.223 51.9029C440.598 51.9029 440.028 51.7909 439.515 51.5669C439.011 51.3335 438.61 50.9882 438.311 50.5309C438.012 50.0735 437.854 49.5042 437.835 48.8229H439.025C439.034 49.1962 439.123 49.5415 439.291 49.8589C439.468 50.1669 439.72 50.4142 440.047 50.6009C440.374 50.7875 440.766 50.8809 441.223 50.8809C441.68 50.8809 442.063 50.7922 442.371 50.6149C442.679 50.4375 442.912 50.2042 443.071 49.9149C443.23 49.6162 443.309 49.2849 443.309 48.9209C443.309 48.4635 443.197 48.0949 442.973 47.8149C442.758 47.5255 442.464 47.3155 442.091 47.1849C441.727 47.0449 441.326 46.9749 440.887 46.9749H440.159V45.9809H440.887C441.531 45.9809 442.035 45.8315 442.399 45.5329C442.763 45.2342 442.945 44.8235 442.945 44.3009C442.945 43.8715 442.8 43.5122 442.511 43.2229C442.231 42.9335 441.802 42.7889 441.223 42.7889C440.672 42.7889 440.234 42.9475 439.907 43.2649C439.58 43.5822 439.394 43.9882 439.347 44.4829H438.157C438.185 43.9509 438.33 43.4795 438.591 43.0689C438.852 42.6582 439.207 42.3409 439.655 42.1169C440.103 41.8835 440.63 41.7669 441.237 41.7669C441.872 41.7669 442.404 41.8789 442.833 42.1029C443.262 42.3269 443.584 42.6255 443.799 42.9989C444.023 43.3722 444.135 43.7829 444.135 44.2309C444.135 44.5669 444.074 44.8842 443.953 45.1829C443.832 45.4722 443.65 45.7289 443.407 45.9529C443.164 46.1769 442.856 46.3355 442.483 46.4289C442.866 46.5035 443.206 46.6482 443.505 46.8629C443.813 47.0775 444.056 47.3575 444.233 47.7029C444.41 48.0482 444.499 48.4542 444.499 48.9209C444.499 49.4529 444.373 49.9475 444.121 50.4049C443.878 50.8529 443.514 51.2169 443.029 51.4969C442.544 51.7675 441.942 51.9029 441.223 51.9029ZM449.957 51.9029C449.247 51.9029 448.65 51.7722 448.165 51.5109C447.679 51.2402 447.292 50.8855 447.003 50.4469C446.713 49.9989 446.499 49.4949 446.359 48.9349C446.228 48.3749 446.163 47.8055 446.163 47.2269C446.163 46.1442 446.312 45.1969 446.611 44.3849C446.909 43.5635 447.339 42.9242 447.899 42.4669C448.468 42.0002 449.149 41.7669 449.943 41.7669C450.559 41.7669 451.086 41.8882 451.525 42.1309C451.973 42.3642 452.327 42.6815 452.589 43.0829C452.85 43.4842 453.009 43.9322 453.065 44.4269H451.973C451.879 43.9042 451.651 43.5029 451.287 43.2229C450.932 42.9335 450.479 42.7889 449.929 42.7889C449.443 42.7889 449.005 42.9429 448.613 43.2509C448.221 43.5495 447.908 44.0115 447.675 44.6369C447.451 45.2529 447.32 46.0415 447.283 47.0029C447.283 47.0122 447.283 47.0262 447.283 47.0449C447.283 47.0635 447.283 47.0822 447.283 47.1009C447.432 46.8115 447.637 46.5409 447.899 46.2889C448.169 46.0369 448.491 45.8362 448.865 45.6869C449.238 45.5375 449.653 45.4629 450.111 45.4629C450.661 45.4629 451.179 45.5935 451.665 45.8549C452.15 46.1162 452.542 46.4849 452.841 46.9609C453.149 47.4275 453.303 47.9782 453.303 48.6129C453.303 49.1635 453.167 49.6909 452.897 50.1949C452.635 50.6989 452.253 51.1095 451.749 51.4269C451.245 51.7442 450.647 51.9029 449.957 51.9029ZM449.873 50.8669C450.302 50.8669 450.685 50.7735 451.021 50.5869C451.366 50.3909 451.632 50.1295 451.819 49.8029C452.015 49.4669 452.113 49.0889 452.113 48.6689C452.113 48.2302 452.015 47.8475 451.819 47.5209C451.632 47.1942 451.366 46.9422 451.021 46.7649C450.685 46.5782 450.302 46.4849 449.873 46.4849C449.443 46.4849 449.056 46.5829 448.711 46.7789C448.365 46.9749 448.09 47.2409 447.885 47.5769C447.689 47.9035 447.591 48.2722 447.591 48.6829C447.591 49.1029 447.689 49.4809 447.885 49.8169C448.09 50.1435 448.365 50.4002 448.711 50.5869C449.056 50.7735 449.443 50.8669 449.873 50.8669ZM455.234 51.7349V41.9349H456.41V46.3729L460.498 41.9349H461.982L458.342 45.8409L462.038 51.7349H460.61L457.502 46.7509L456.41 47.9129V51.7349H455.234Z" fill="white" fill-opacity="0.4"/>
<line x1="413" y1="83.2349" x2="-4.37114e-08" y2="83.2348" stroke="white" stroke-opacity="0.1" stroke-dasharray="4 4"/>
<path d="M432.57 88.9529V76.6609H433.536V88.9529H432.57ZM433.172 87.9029C432.453 87.9029 431.828 87.7722 431.296 87.5109C430.764 87.2495 430.353 86.8855 430.064 86.4189C429.775 85.9522 429.63 85.4109 429.63 84.7949H430.862C430.862 85.1775 430.951 85.5322 431.128 85.8589C431.305 86.1762 431.562 86.4329 431.898 86.6289C432.243 86.8155 432.668 86.9089 433.172 86.9089C433.611 86.9089 433.984 86.8389 434.292 86.6989C434.609 86.5495 434.847 86.3489 435.006 86.0969C435.174 85.8449 435.258 85.5602 435.258 85.2429C435.258 84.8602 435.174 84.5522 435.006 84.3189C434.847 84.0762 434.628 83.8802 434.348 83.7309C434.068 83.5815 433.741 83.4509 433.368 83.3389C433.004 83.2175 432.621 83.0915 432.22 82.9609C431.445 82.6995 430.876 82.3729 430.512 81.9809C430.148 81.5889 429.966 81.0802 429.966 80.4549C429.966 79.9229 430.087 79.4562 430.33 79.0549C430.582 78.6535 430.937 78.3409 431.394 78.1169C431.861 77.8835 432.411 77.7669 433.046 77.7669C433.671 77.7669 434.213 77.8835 434.67 78.1169C435.137 78.3502 435.501 78.6722 435.762 79.0829C436.023 79.4842 436.154 79.9509 436.154 80.4829H434.922C434.922 80.2122 434.852 79.9462 434.712 79.6849C434.572 79.4235 434.357 79.2089 434.068 79.0409C433.788 78.8635 433.433 78.7749 433.004 78.7749C432.649 78.7655 432.332 78.8262 432.052 78.9569C431.781 79.0782 431.567 79.2555 431.408 79.4889C431.259 79.7222 431.184 80.0069 431.184 80.3429C431.184 80.6602 431.249 80.9169 431.38 81.1129C431.52 81.3089 431.716 81.4769 431.968 81.6169C432.229 81.7475 432.533 81.8689 432.878 81.9809C433.223 82.0929 433.606 82.2189 434.026 82.3589C434.502 82.5175 434.922 82.7135 435.286 82.9469C435.659 83.1709 435.949 83.4602 436.154 83.8149C436.369 84.1695 436.476 84.6222 436.476 85.1729C436.476 85.6395 436.35 86.0829 436.098 86.5029C435.855 86.9135 435.491 87.2495 435.006 87.5109C434.521 87.7722 433.909 87.9029 433.172 87.9029ZM441.223 87.9029C440.598 87.9029 440.028 87.7909 439.515 87.5669C439.011 87.3335 438.61 86.9882 438.311 86.5309C438.012 86.0735 437.854 85.5042 437.835 84.8229H439.025C439.034 85.1962 439.123 85.5415 439.291 85.8589C439.468 86.1669 439.72 86.4142 440.047 86.6009C440.374 86.7875 440.766 86.8809 441.223 86.8809C441.68 86.8809 442.063 86.7922 442.371 86.6149C442.679 86.4375 442.912 86.2042 443.071 85.9149C443.23 85.6162 443.309 85.2849 443.309 84.9209C443.309 84.4635 443.197 84.0949 442.973 83.8149C442.758 83.5255 442.464 83.3155 442.091 83.1849C441.727 83.0449 441.326 82.9749 440.887 82.9749H440.159V81.9809H440.887C441.531 81.9809 442.035 81.8315 442.399 81.5329C442.763 81.2342 442.945 80.8235 442.945 80.3009C442.945 79.8715 442.8 79.5122 442.511 79.2229C442.231 78.9335 441.802 78.7889 441.223 78.7889C440.672 78.7889 440.234 78.9475 439.907 79.2649C439.58 79.5822 439.394 79.9882 439.347 80.4829H438.157C438.185 79.9509 438.33 79.4795 438.591 79.0689C438.852 78.6582 439.207 78.3409 439.655 78.1169C440.103 77.8835 440.63 77.7669 441.237 77.7669C441.872 77.7669 442.404 77.8789 442.833 78.1029C443.262 78.3269 443.584 78.6255 443.799 78.9989C444.023 79.3722 444.135 79.7829 444.135 80.2309C444.135 80.5669 444.074 80.8842 443.953 81.1829C443.832 81.4722 443.65 81.7289 443.407 81.9529C443.164 82.1769 442.856 82.3355 442.483 82.4289C442.866 82.5035 443.206 82.6482 443.505 82.8629C443.813 83.0775 444.056 83.3575 444.233 83.7029C444.41 84.0482 444.499 84.4542 444.499 84.9209C444.499 85.4529 444.373 85.9475 444.121 86.4049C443.878 86.8529 443.514 87.2169 443.029 87.4969C442.544 87.7675 441.942 87.9029 441.223 87.9029ZM450.881 87.7349V85.6349H445.911V84.7249L450.671 77.9349H452.043V84.5989H453.499V85.6349H452.043V87.7349H450.881ZM447.213 84.5989H450.937V79.2369L447.213 84.5989ZM454.946 87.7349V77.9349H456.122V82.3729L460.21 77.9349H461.694L458.054 81.8409L461.75 87.7349H460.322L457.214 82.7509L456.122 83.9129V87.7349H454.946Z" fill="white" fill-opacity="0.4"/>
<line x1="413" y1="119.235" x2="-4.37114e-08" y2="119.235" stroke="white" stroke-opacity="0.1" stroke-dasharray="4 4"/>
<path d="M432.57 124.953V112.661H433.536V124.953H432.57ZM433.172 123.903C432.453 123.903 431.828 123.772 431.296 123.511C430.764 123.25 430.353 122.886 430.064 122.419C429.775 121.952 429.63 121.411 429.63 120.795H430.862C430.862 121.178 430.951 121.532 431.128 121.859C431.305 122.176 431.562 122.433 431.898 122.629C432.243 122.816 432.668 122.909 433.172 122.909C433.611 122.909 433.984 122.839 434.292 122.699C434.609 122.55 434.847 122.349 435.006 122.097C435.174 121.845 435.258 121.56 435.258 121.243C435.258 120.86 435.174 120.552 435.006 120.319C434.847 120.076 434.628 119.88 434.348 119.731C434.068 119.582 433.741 119.451 433.368 119.339C433.004 119.218 432.621 119.092 432.22 118.961C431.445 118.7 430.876 118.373 430.512 117.981C430.148 117.589 429.966 117.08 429.966 116.455C429.966 115.923 430.087 115.456 430.33 115.055C430.582 114.654 430.937 114.341 431.394 114.117C431.861 113.884 432.411 113.767 433.046 113.767C433.671 113.767 434.213 113.884 434.67 114.117C435.137 114.35 435.501 114.672 435.762 115.083C436.023 115.484 436.154 115.951 436.154 116.483H434.922C434.922 116.212 434.852 115.946 434.712 115.685C434.572 115.424 434.357 115.209 434.068 115.041C433.788 114.864 433.433 114.775 433.004 114.775C432.649 114.766 432.332 114.826 432.052 114.957C431.781 115.078 431.567 115.256 431.408 115.489C431.259 115.722 431.184 116.007 431.184 116.343C431.184 116.66 431.249 116.917 431.38 117.113C431.52 117.309 431.716 117.477 431.968 117.617C432.229 117.748 432.533 117.869 432.878 117.981C433.223 118.093 433.606 118.219 434.026 118.359C434.502 118.518 434.922 118.714 435.286 118.947C435.659 119.171 435.949 119.46 436.154 119.815C436.369 120.17 436.476 120.622 436.476 121.173C436.476 121.64 436.35 122.083 436.098 122.503C435.855 122.914 435.491 123.25 435.006 123.511C434.521 123.772 433.909 123.903 433.172 123.903ZM441.223 123.903C440.598 123.903 440.028 123.791 439.515 123.567C439.011 123.334 438.61 122.988 438.311 122.531C438.012 122.074 437.854 121.504 437.835 120.823H439.025C439.034 121.196 439.123 121.542 439.291 121.859C439.468 122.167 439.72 122.414 440.047 122.601C440.374 122.788 440.766 122.881 441.223 122.881C441.68 122.881 442.063 122.792 442.371 122.615C442.679 122.438 442.912 122.204 443.071 121.915C443.23 121.616 443.309 121.285 443.309 120.921C443.309 120.464 443.197 120.095 442.973 119.815C442.758 119.526 442.464 119.316 442.091 119.185C441.727 119.045 441.326 118.975 440.887 118.975H440.159V117.981H440.887C441.531 117.981 442.035 117.832 442.399 117.533C442.763 117.234 442.945 116.824 442.945 116.301C442.945 115.872 442.8 115.512 442.511 115.223C442.231 114.934 441.802 114.789 441.223 114.789C440.672 114.789 440.234 114.948 439.907 115.265C439.58 115.582 439.394 115.988 439.347 116.483H438.157C438.185 115.951 438.33 115.48 438.591 115.069C438.852 114.658 439.207 114.341 439.655 114.117C440.103 113.884 440.63 113.767 441.237 113.767C441.872 113.767 442.404 113.879 442.833 114.103C443.262 114.327 443.584 114.626 443.799 114.999C444.023 115.372 444.135 115.783 444.135 116.231C444.135 116.567 444.074 116.884 443.953 117.183C443.832 117.472 443.65 117.729 443.407 117.953C443.164 118.177 442.856 118.336 442.483 118.429C442.866 118.504 443.206 118.648 443.505 118.863C443.813 119.078 444.056 119.358 444.233 119.703C444.41 120.048 444.499 120.454 444.499 120.921C444.499 121.453 444.373 121.948 444.121 122.405C443.878 122.853 443.514 123.217 443.029 123.497C442.544 123.768 441.942 123.903 441.223 123.903ZM446.289 123.735V122.909C446.951 122.386 447.581 121.859 448.179 121.327C448.785 120.795 449.322 120.268 449.789 119.745C450.255 119.213 450.619 118.695 450.881 118.191C451.151 117.687 451.287 117.202 451.287 116.735C451.287 116.39 451.226 116.072 451.105 115.783C450.983 115.484 450.787 115.242 450.517 115.055C450.255 114.868 449.901 114.775 449.453 114.775C449.014 114.775 448.65 114.873 448.361 115.069C448.071 115.256 447.852 115.508 447.703 115.825C447.563 116.133 447.493 116.474 447.493 116.847H446.359C446.368 116.203 446.503 115.652 446.765 115.195C447.035 114.728 447.404 114.374 447.871 114.131C448.337 113.888 448.869 113.767 449.467 113.767C450.055 113.767 450.573 113.879 451.021 114.103C451.469 114.318 451.819 114.64 452.071 115.069C452.332 115.498 452.463 116.04 452.463 116.693C452.463 117.15 452.365 117.608 452.169 118.065C451.982 118.522 451.73 118.97 451.413 119.409C451.095 119.838 450.741 120.254 450.349 120.655C449.966 121.056 449.569 121.434 449.159 121.789C448.757 122.144 448.379 122.466 448.025 122.755H452.799V123.735H446.289ZM454.509 123.735V113.935H455.685V118.373L459.773 113.935H461.257L457.617 117.841L461.313 123.735H459.885L456.777 118.751L455.685 119.913V123.735H454.509Z" fill="white" fill-opacity="0.4"/>
<line x1="413" y1="155.235" x2="-4.37114e-08" y2="155.235" stroke="white" stroke-opacity="0.1" stroke-dasharray="4 4"/>
<path d="M432.57 160.953V148.661H433.536V160.953H432.57ZM433.172 159.903C432.453 159.903 431.828 159.772 431.296 159.511C430.764 159.25 430.353 158.886 430.064 158.419C429.775 157.952 429.63 157.411 429.63 156.795H430.862C430.862 157.178 430.951 157.532 431.128 157.859C431.305 158.176 431.562 158.433 431.898 158.629C432.243 158.816 432.668 158.909 433.172 158.909C433.611 158.909 433.984 158.839 434.292 158.699C434.609 158.55 434.847 158.349 435.006 158.097C435.174 157.845 435.258 157.56 435.258 157.243C435.258 156.86 435.174 156.552 435.006 156.319C434.847 156.076 434.628 155.88 434.348 155.731C434.068 155.582 433.741 155.451 433.368 155.339C433.004 155.218 432.621 155.092 432.22 154.961C431.445 154.7 430.876 154.373 430.512 153.981C430.148 153.589 429.966 153.08 429.966 152.455C429.966 151.923 430.087 151.456 430.33 151.055C430.582 150.654 430.937 150.341 431.394 150.117C431.861 149.884 432.411 149.767 433.046 149.767C433.671 149.767 434.213 149.884 434.67 150.117C435.137 150.35 435.501 150.672 435.762 151.083C436.023 151.484 436.154 151.951 436.154 152.483H434.922C434.922 152.212 434.852 151.946 434.712 151.685C434.572 151.424 434.357 151.209 434.068 151.041C433.788 150.864 433.433 150.775 433.004 150.775C432.649 150.766 432.332 150.826 432.052 150.957C431.781 151.078 431.567 151.256 431.408 151.489C431.259 151.722 431.184 152.007 431.184 152.343C431.184 152.66 431.249 152.917 431.38 153.113C431.52 153.309 431.716 153.477 431.968 153.617C432.229 153.748 432.533 153.869 432.878 153.981C433.223 154.093 433.606 154.219 434.026 154.359C434.502 154.518 434.922 154.714 435.286 154.947C435.659 155.171 435.949 155.46 436.154 155.815C436.369 156.17 436.476 156.622 436.476 157.173C436.476 157.64 436.35 158.083 436.098 158.503C435.855 158.914 435.491 159.25 435.006 159.511C434.521 159.772 433.909 159.903 433.172 159.903ZM441.223 159.903C440.598 159.903 440.028 159.791 439.515 159.567C439.011 159.334 438.61 158.988 438.311 158.531C438.012 158.074 437.854 157.504 437.835 156.823H439.025C439.034 157.196 439.123 157.542 439.291 157.859C439.468 158.167 439.72 158.414 440.047 158.601C440.374 158.788 440.766 158.881 441.223 158.881C441.68 158.881 442.063 158.792 442.371 158.615C442.679 158.438 442.912 158.204 443.071 157.915C443.23 157.616 443.309 157.285 443.309 156.921C443.309 156.464 443.197 156.095 442.973 155.815C442.758 155.526 442.464 155.316 442.091 155.185C441.727 155.045 441.326 154.975 440.887 154.975H440.159V153.981H440.887C441.531 153.981 442.035 153.832 442.399 153.533C442.763 153.234 442.945 152.824 442.945 152.301C442.945 151.872 442.8 151.512 442.511 151.223C442.231 150.934 441.802 150.789 441.223 150.789C440.672 150.789 440.234 150.948 439.907 151.265C439.58 151.582 439.394 151.988 439.347 152.483H438.157C438.185 151.951 438.33 151.48 438.591 151.069C438.852 150.658 439.207 150.341 439.655 150.117C440.103 149.884 440.63 149.767 441.237 149.767C441.872 149.767 442.404 149.879 442.833 150.103C443.262 150.327 443.584 150.626 443.799 150.999C444.023 151.372 444.135 151.783 444.135 152.231C444.135 152.567 444.074 152.884 443.953 153.183C443.832 153.472 443.65 153.729 443.407 153.953C443.164 154.177 442.856 154.336 442.483 154.429C442.866 154.504 443.206 154.648 443.505 154.863C443.813 155.078 444.056 155.358 444.233 155.703C444.41 156.048 444.499 156.454 444.499 156.921C444.499 157.453 444.373 157.948 444.121 158.405C443.878 158.853 443.514 159.217 443.029 159.497C442.544 159.768 441.942 159.903 441.223 159.903ZM450.195 159.903C449.336 159.903 448.594 159.693 447.969 159.273C447.353 158.844 446.881 158.251 446.555 157.495C446.228 156.73 446.065 155.843 446.065 154.835C446.065 153.827 446.228 152.945 446.555 152.189C446.881 151.424 447.353 150.831 447.969 150.411C448.594 149.982 449.336 149.767 450.195 149.767C451.053 149.767 451.786 149.982 452.393 150.411C453.009 150.831 453.48 151.424 453.807 152.189C454.133 152.945 454.297 153.827 454.297 154.835C454.297 155.843 454.133 156.73 453.807 157.495C453.48 158.251 453.009 158.844 452.393 159.273C451.786 159.693 451.053 159.903 450.195 159.903ZM450.181 158.867C450.741 158.867 451.24 158.708 451.679 158.391C452.117 158.064 452.463 157.602 452.715 157.005C452.967 156.398 453.093 155.675 453.093 154.835C453.093 153.995 452.967 153.276 452.715 152.679C452.463 152.072 452.117 151.61 451.679 151.293C451.24 150.976 450.741 150.817 450.181 150.817C449.621 150.817 449.117 150.976 448.669 151.293C448.23 151.61 447.885 152.072 447.633 152.679C447.39 153.276 447.269 153.995 447.269 154.835C447.269 155.675 447.39 156.398 447.633 157.005C447.885 157.602 448.23 158.064 448.669 158.391C449.117 158.708 449.621 158.867 450.181 158.867ZM456.013 159.735V149.935H457.189V154.373L461.277 149.935H462.761L459.121 153.841L462.817 159.735H461.389L458.281 154.751L457.189 155.913V159.735H456.013Z" fill="white" fill-opacity="0.4"/>
<path d="M3.234 191.903C2.646 191.903 2.13733 191.791 1.708 191.567C1.288 191.343 0.961333 191.021 0.728 190.601C0.504 190.181 0.392 189.682 0.392 189.103H1.582C1.582 189.43 1.63333 189.728 1.736 189.999C1.848 190.26 2.02067 190.47 2.254 190.629C2.49667 190.778 2.81867 190.853 3.22 190.853C3.612 190.853 3.92 190.778 4.144 190.629C4.37733 190.48 4.54067 190.279 4.634 190.027C4.73667 189.766 4.788 189.472 4.788 189.145V181.935H5.964V189.145C5.964 190.022 5.72133 190.704 5.236 191.189C4.76 191.665 4.09267 191.903 3.234 191.903ZM10.2897 191.903C9.72034 191.903 9.24434 191.805 8.86167 191.609C8.47901 191.404 8.19434 191.138 8.00767 190.811C7.82101 190.475 7.72767 190.111 7.72767 189.719C7.72767 189.243 7.84901 188.842 8.09167 188.515C8.34367 188.179 8.69367 187.927 9.14167 187.759C9.59901 187.582 10.1357 187.493 10.7517 187.493H12.6137C12.6137 187.054 12.5437 186.69 12.4037 186.401C12.273 186.102 12.077 185.878 11.8157 185.729C11.5637 185.58 11.2463 185.505 10.8637 185.505C10.4157 185.505 10.0283 185.617 9.70167 185.841C9.37501 186.065 9.17434 186.396 9.09967 186.835H7.89567C7.95167 186.331 8.11967 185.911 8.39967 185.575C8.68901 185.23 9.05301 184.968 9.49167 184.791C9.93034 184.604 10.3877 184.511 10.8637 184.511C11.517 184.511 12.0583 184.632 12.4877 184.875C12.9263 185.108 13.253 185.44 13.4677 185.869C13.6823 186.289 13.7897 186.788 13.7897 187.367V191.735H12.7397L12.6697 190.489C12.5763 190.685 12.455 190.872 12.3057 191.049C12.1657 191.217 11.9977 191.366 11.8017 191.497C11.6057 191.618 11.3817 191.716 11.1297 191.791C10.887 191.866 10.607 191.903 10.2897 191.903ZM10.4717 190.909C10.7983 190.909 11.0923 190.844 11.3537 190.713C11.6243 190.573 11.853 190.386 12.0397 190.153C12.2263 189.91 12.3663 189.644 12.4597 189.355C12.5623 189.066 12.6137 188.762 12.6137 188.445V188.403H10.8497C10.3923 188.403 10.0237 188.459 9.74367 188.571C9.46367 188.674 9.26301 188.823 9.14167 189.019C9.02034 189.206 8.95967 189.42 8.95967 189.663C8.95967 189.915 9.01567 190.134 9.12767 190.321C9.24901 190.508 9.42167 190.652 9.64567 190.755C9.87901 190.858 10.1543 190.909 10.4717 190.909ZM15.6089 191.735V184.679H16.6729L16.7289 185.911C16.9529 185.472 17.2702 185.132 17.6809 184.889C18.1009 184.637 18.5769 184.511 19.1089 184.511C19.6596 184.511 20.1356 184.623 20.5369 184.847C20.9382 185.062 21.2509 185.393 21.4749 185.841C21.6989 186.28 21.8109 186.84 21.8109 187.521V191.735H20.6349V187.647C20.6349 186.938 20.4762 186.406 20.1589 186.051C19.8509 185.696 19.4122 185.519 18.8429 185.519C18.4509 185.519 18.1009 185.617 17.7929 185.813C17.4849 186 17.2376 186.275 17.0509 186.639C16.8736 186.994 16.7849 187.437 16.7849 187.969V191.735H15.6089Z" fill="white" fill-opacity="0.4"/>
<path d="M64.05 191.735V181.935H70.014V182.901H65.226V186.345H69.3V187.297H65.226V191.735H64.05ZM74.2654 191.903C73.6027 191.903 73.0147 191.749 72.5014 191.441C71.9974 191.133 71.6007 190.704 71.3114 190.153C71.0221 189.593 70.8774 188.944 70.8774 188.207C70.8774 187.46 71.0174 186.812 71.2974 186.261C71.5867 185.71 71.9881 185.281 72.5014 184.973C73.0241 184.665 73.6214 184.511 74.2934 184.511C74.9841 184.511 75.5674 184.665 76.0434 184.973C76.5287 185.281 76.8974 185.687 77.1494 186.191C77.4107 186.686 77.5414 187.232 77.5414 187.829C77.5414 187.922 77.5414 188.02 77.5414 188.123C77.5414 188.226 77.5367 188.342 77.5274 188.473H71.7594V187.563H76.3934C76.3654 186.919 76.1507 186.415 75.7494 186.051C75.3574 185.687 74.8627 185.505 74.2654 185.505C73.8641 185.505 73.4907 185.598 73.1454 185.785C72.8094 185.962 72.5387 186.228 72.3334 186.583C72.1281 186.928 72.0254 187.362 72.0254 187.885V188.277C72.0254 188.856 72.1281 189.341 72.3334 189.733C72.5481 190.125 72.8234 190.419 73.1594 190.615C73.5047 190.811 73.8734 190.909 74.2654 190.909C74.7601 190.909 75.1661 190.802 75.4834 190.587C75.8101 190.363 76.0434 190.064 76.1834 189.691H77.3454C77.2334 190.111 77.0374 190.489 76.7574 190.825C76.4774 191.161 76.1274 191.427 75.7074 191.623C75.2967 191.81 74.8161 191.903 74.2654 191.903ZM82.8244 191.903C82.4231 191.903 82.0591 191.847 81.7324 191.735C81.4151 191.614 81.1351 191.455 80.8924 191.259C80.6498 191.063 80.4491 190.834 80.2904 190.573L80.1924 191.735H79.1284V181.655H80.3044V185.841C80.5284 185.477 80.8504 185.164 81.2704 184.903C81.6904 184.642 82.2084 184.511 82.8244 184.511C83.5058 184.511 84.1031 184.674 84.6164 185.001C85.1298 185.318 85.5264 185.757 85.8064 186.317C86.0958 186.868 86.2404 187.498 86.2404 188.207C86.2404 188.916 86.0958 189.551 85.8064 190.111C85.5264 190.671 85.1298 191.11 84.6164 191.427C84.1031 191.744 83.5058 191.903 82.8244 191.903ZM82.6844 190.881C83.1418 190.881 83.5478 190.769 83.9024 190.545C84.2571 190.321 84.5324 190.013 84.7284 189.621C84.9338 189.22 85.0364 188.748 85.0364 188.207C85.0364 187.675 84.9338 187.208 84.7284 186.807C84.5324 186.406 84.2571 186.093 83.9024 185.869C83.5478 185.645 83.1418 185.533 82.6844 185.533C82.2178 185.533 81.8071 185.645 81.4524 185.869C81.0978 186.093 80.8224 186.406 80.6264 186.807C80.4304 187.208 80.3324 187.675 80.3324 188.207C80.3324 188.748 80.4304 189.22 80.6264 189.621C80.8224 190.013 81.0978 190.321 81.4524 190.545C81.8071 190.769 82.2178 190.881 82.6844 190.881Z" fill="white" fill-opacity="0.4"/>
<path d="M128.05 191.735V181.935H129.422L132.88 188.781L136.352 181.935H137.738V191.735H136.562V184.035L133.328 190.363H132.446L129.226 184.063V191.735H128.05ZM142.047 191.903C141.478 191.903 141.002 191.805 140.619 191.609C140.237 191.404 139.952 191.138 139.765 190.811C139.579 190.475 139.485 190.111 139.485 189.719C139.485 189.243 139.607 188.842 139.849 188.515C140.101 188.179 140.451 187.927 140.899 187.759C141.357 187.582 141.893 187.493 142.509 187.493H144.371C144.371 187.054 144.301 186.69 144.161 186.401C144.031 186.102 143.835 185.878 143.573 185.729C143.321 185.58 143.004 185.505 142.621 185.505C142.173 185.505 141.786 185.617 141.459 185.841C141.133 186.065 140.932 186.396 140.857 186.835H139.653C139.709 186.331 139.877 185.911 140.157 185.575C140.447 185.23 140.811 184.968 141.249 184.791C141.688 184.604 142.145 184.511 142.621 184.511C143.275 184.511 143.816 184.632 144.245 184.875C144.684 185.108 145.011 185.44 145.225 185.869C145.44 186.289 145.547 186.788 145.547 187.367V191.735H144.497L144.427 190.489C144.334 190.685 144.213 190.872 144.063 191.049C143.923 191.217 143.755 191.366 143.559 191.497C143.363 191.618 143.139 191.716 142.887 191.791C142.645 191.866 142.365 191.903 142.047 191.903ZM142.229 190.909C142.556 190.909 142.85 190.844 143.111 190.713C143.382 190.573 143.611 190.386 143.797 190.153C143.984 189.91 144.124 189.644 144.217 189.355C144.32 189.066 144.371 188.762 144.371 188.445V188.403H142.607C142.15 188.403 141.781 188.459 141.501 188.571C141.221 188.674 141.021 188.823 140.899 189.019C140.778 189.206 140.717 189.42 140.717 189.663C140.717 189.915 140.773 190.134 140.885 190.321C141.007 190.508 141.179 190.652 141.403 190.755C141.637 190.858 141.912 190.909 142.229 190.909ZM147.367 191.735V184.679H148.431L148.515 186.023C148.673 185.706 148.874 185.435 149.117 185.211C149.369 184.987 149.667 184.814 150.013 184.693C150.367 184.572 150.769 184.511 151.217 184.511V185.743H150.783C150.484 185.743 150.199 185.785 149.929 185.869C149.658 185.944 149.415 186.07 149.201 186.247C148.995 186.424 148.832 186.667 148.711 186.975C148.599 187.274 148.543 187.647 148.543 188.095V191.735H147.367Z" fill="white" fill-opacity="0.4"/>
<path d="M192.42 191.735L196.032 181.935H197.278L200.876 191.735H199.63L196.648 183.405L193.652 191.735H192.42ZM194.072 189.215L194.408 188.263H198.846L199.182 189.215H194.072ZM202.277 194.815V184.679H203.341L203.439 185.827C203.588 185.603 203.78 185.393 204.013 185.197C204.246 184.992 204.526 184.828 204.853 184.707C205.18 184.576 205.553 184.511 205.973 184.511C206.664 184.511 207.261 184.674 207.765 185.001C208.278 185.328 208.675 185.771 208.955 186.331C209.244 186.882 209.389 187.512 209.389 188.221C209.389 188.93 209.244 189.565 208.955 190.125C208.675 190.676 208.278 191.11 207.765 191.427C207.252 191.744 206.65 191.903 205.959 191.903C205.39 191.903 204.886 191.786 204.447 191.553C204.018 191.32 203.686 190.993 203.453 190.573V194.815H202.277ZM205.833 190.881C206.29 190.881 206.696 190.769 207.051 190.545C207.406 190.321 207.681 190.013 207.877 189.621C208.082 189.22 208.185 188.748 208.185 188.207C208.185 187.675 208.082 187.208 207.877 186.807C207.681 186.406 207.406 186.093 207.051 185.869C206.696 185.645 206.29 185.533 205.833 185.533C205.366 185.533 204.956 185.645 204.601 185.869C204.246 186.093 203.971 186.406 203.775 186.807C203.579 187.208 203.481 187.675 203.481 188.207C203.481 188.748 203.579 189.22 203.775 189.621C203.971 190.013 204.246 190.321 204.601 190.545C204.956 190.769 205.366 190.881 205.833 190.881ZM211.041 191.735V184.679H212.105L212.189 186.023C212.347 185.706 212.548 185.435 212.791 185.211C213.043 184.987 213.341 184.814 213.687 184.693C214.041 184.572 214.443 184.511 214.891 184.511V185.743H214.457C214.158 185.743 213.873 185.785 213.603 185.869C213.332 185.944 213.089 186.07 212.875 186.247C212.669 186.424 212.506 186.667 212.385 186.975C212.273 187.274 212.217 187.647 212.217 188.095V191.735H211.041Z" fill="white" fill-opacity="0.4"/>
<path d="M257.05 191.735V181.935H258.422L261.88 188.781L265.352 181.935H266.738V191.735H265.562V184.035L262.328 190.363H261.446L258.226 184.063V191.735H257.05ZM271.047 191.903C270.478 191.903 270.002 191.805 269.619 191.609C269.237 191.404 268.952 191.138 268.765 190.811C268.579 190.475 268.485 190.111 268.485 189.719C268.485 189.243 268.607 188.842 268.849 188.515C269.101 188.179 269.451 187.927 269.899 187.759C270.357 187.582 270.893 187.493 271.509 187.493H273.371C273.371 187.054 273.301 186.69 273.161 186.401C273.031 186.102 272.835 185.878 272.573 185.729C272.321 185.58 272.004 185.505 271.621 185.505C271.173 185.505 270.786 185.617 270.459 185.841C270.133 186.065 269.932 186.396 269.857 186.835H268.653C268.709 186.331 268.877 185.911 269.157 185.575C269.447 185.23 269.811 184.968 270.249 184.791C270.688 184.604 271.145 184.511 271.621 184.511C272.275 184.511 272.816 184.632 273.245 184.875C273.684 185.108 274.011 185.44 274.225 185.869C274.44 186.289 274.547 186.788 274.547 187.367V191.735H273.497L273.427 190.489C273.334 190.685 273.213 190.872 273.063 191.049C272.923 191.217 272.755 191.366 272.559 191.497C272.363 191.618 272.139 191.716 271.887 191.791C271.645 191.866 271.365 191.903 271.047 191.903ZM271.229 190.909C271.556 190.909 271.85 190.844 272.111 190.713C272.382 190.573 272.611 190.386 272.797 190.153C272.984 189.91 273.124 189.644 273.217 189.355C273.32 189.066 273.371 188.762 273.371 188.445V188.403H271.607C271.15 188.403 270.781 188.459 270.501 188.571C270.221 188.674 270.021 188.823 269.899 189.019C269.778 189.206 269.717 189.42 269.717 189.663C269.717 189.915 269.773 190.134 269.885 190.321C270.007 190.508 270.179 190.652 270.403 190.755C270.637 190.858 270.912 190.909 271.229 190.909ZM276.932 194.815L278.654 190.951H278.248L275.476 184.679H276.75L279.046 190.069L281.454 184.679H282.672L278.164 194.815H276.932Z" fill="white" fill-opacity="0.4"/>
<path d="M326.234 191.903C325.646 191.903 325.137 191.791 324.708 191.567C324.288 191.343 323.961 191.021 323.728 190.601C323.504 190.181 323.392 189.682 323.392 189.103H324.582C324.582 189.43 324.633 189.728 324.736 189.999C324.848 190.26 325.021 190.47 325.254 190.629C325.497 190.778 325.819 190.853 326.22 190.853C326.612 190.853 326.92 190.778 327.144 190.629C327.377 190.48 327.541 190.279 327.634 190.027C327.737 189.766 327.788 189.472 327.788 189.145V181.935H328.964V189.145C328.964 190.022 328.721 190.704 328.236 191.189C327.76 191.665 327.093 191.903 326.234 191.903ZM333.556 191.903C333.014 191.903 332.538 191.796 332.128 191.581C331.726 191.366 331.414 191.035 331.19 190.587C330.975 190.139 330.868 189.579 330.868 188.907V184.679H332.044V188.781C332.044 189.481 332.198 190.008 332.506 190.363C332.814 190.718 333.248 190.895 333.808 190.895C334.2 190.895 334.554 190.802 334.872 190.615C335.189 190.419 335.436 190.144 335.614 189.789C335.8 189.425 335.894 188.982 335.894 188.459V184.679H337.07V191.735H336.006L335.936 190.503C335.721 190.942 335.404 191.287 334.984 191.539C334.564 191.782 334.088 191.903 333.556 191.903ZM339.019 191.735V184.679H340.083L340.139 185.911C340.363 185.472 340.68 185.132 341.091 184.889C341.511 184.637 341.987 184.511 342.519 184.511C343.07 184.511 343.546 184.623 343.947 184.847C344.348 185.062 344.661 185.393 344.885 185.841C345.109 186.28 345.221 186.84 345.221 187.521V191.735H344.045V187.647C344.045 186.938 343.886 186.406 343.569 186.051C343.261 185.696 342.822 185.519 342.253 185.519C341.861 185.519 341.511 185.617 341.203 185.813C340.895 186 340.648 186.275 340.461 186.639C340.284 186.994 340.195 187.437 340.195 187.969V191.735H339.019Z" fill="white" fill-opacity="0.4"/>
<path d="M390.234 191.903C389.646 191.903 389.137 191.791 388.708 191.567C388.288 191.343 387.961 191.021 387.728 190.601C387.504 190.181 387.392 189.682 387.392 189.103H388.582C388.582 189.43 388.633 189.728 388.736 189.999C388.848 190.26 389.021 190.47 389.254 190.629C389.497 190.778 389.819 190.853 390.22 190.853C390.612 190.853 390.92 190.778 391.144 190.629C391.377 190.48 391.541 190.279 391.634 190.027C391.737 189.766 391.788 189.472 391.788 189.145V181.935H392.964V189.145C392.964 190.022 392.721 190.704 392.236 191.189C391.76 191.665 391.093 191.903 390.234 191.903ZM397.556 191.903C397.014 191.903 396.538 191.796 396.128 191.581C395.726 191.366 395.414 191.035 395.19 190.587C394.975 190.139 394.868 189.579 394.868 188.907V184.679H396.044V188.781C396.044 189.481 396.198 190.008 396.506 190.363C396.814 190.718 397.248 190.895 397.808 190.895C398.2 190.895 398.554 190.802 398.872 190.615C399.189 190.419 399.436 190.144 399.614 189.789C399.8 189.425 399.894 188.982 399.894 188.459V184.679H401.07V191.735H400.006L399.936 190.503C399.721 190.942 399.404 191.287 398.984 191.539C398.564 191.782 398.088 191.903 397.556 191.903ZM403.019 191.735V181.655H404.195V191.735H403.019ZM406.906 194.815L408.628 190.951H408.222L405.45 184.679H406.724L409.02 190.069L411.428 184.679H412.646L408.138 194.815H406.906Z" fill="white" fill-opacity="0.4"/>
<rect x="8.5" y="98.7349" width="1" height="6" fill="#99E39E"/>
<rect x="5" y="104.735" width="8" height="36" fill="#99E39E"/>
<rect x="8.5" y="140.735" width="1" height="14" fill="#99E39E"/>
<rect x="30.5" y="58.7349" width="1" height="18" fill="#99E39E"/>
<rect x="27" y="76.7349" width="8" height="24" fill="#99E39E"/>
<rect x="30.5" y="100.735" width="1" height="14" fill="#99E39E"/>
<rect x="51.5" y="46.7349" width="1" height="8" fill="#99E39E"/>
<rect x="48" y="54.7349" width="8" height="40" fill="#99E39E"/>
<rect x="51.5" y="94.7349" width="1" height="14" fill="#99E39E"/>
<rect x="73.5" y="67.7349" width="1" height="6" fill="#FF6961"/>
<rect x="70" y="73.7349" width="8" height="40" fill="#FF6961"/>
<rect x="73.5" y="113.735" width="1" height="14" fill="#FF6961"/>
<rect x="93.5" y="94.7349" width="1" height="20" fill="#FF6961"/>
<rect x="90" y="114.735" width="8" height="20" fill="#FF6961"/>
<rect x="93.5" y="134.735" width="1" height="9" fill="#FF6961"/>
<rect x="135.5" y="61.7349" width="1" height="12" fill="#99E39E"/>
<rect x="132" y="73.7349" width="8" height="29" fill="#99E39E"/>
<rect x="135.5" y="102.735" width="1" height="25" fill="#99E39E"/>
<rect x="156.5" y="69.7349" width="1" height="21" fill="#FF6961"/>
<rect x="153" y="90.7349" width="8" height="21" fill="#FF6961"/>
<rect x="156.5" y="111.735" width="1" height="8" fill="#FF6961"/>
<rect x="177.5" y="53.7349" width="1" height="11" fill="#99E39E"/>
<rect x="174" y="64.7349" width="8" height="52" fill="#99E39E"/>
<rect x="177.5" y="116.735" width="1" height="8" fill="#99E39E"/>
<rect x="198.5" y="85.7349" width="1" height="11" fill="#FF6961"/>
<rect x="195" y="96.7349" width="8" height="30" fill="#FF6961"/>
<rect x="198.5" y="126.735" width="1" height="8" fill="#FF6961"/>
<rect x="240.5" y="70.7349" width="1" height="6" fill="#99E39E"/>
<rect x="237" y="76.7349" width="8" height="39" fill="#99E39E"/>
<rect x="240.5" y="115.735" width="1" height="15" fill="#99E39E"/>
<rect x="261.5" y="53.7349" width="1" height="6" fill="#99E39E"/>
<rect x="258" y="59.7349" width="8" height="35" fill="#99E39E"/>
<rect x="261.5" y="94.7349" width="1" height="15" fill="#99E39E"/>
<rect x="282.5" y="35.7349" width="1" height="4" fill="#99E39E"/>
<rect x="279" y="39.7349" width="8" height="24" fill="#99E39E"/>
<rect x="282.5" y="63.7349" width="1" height="9" fill="#99E39E"/>
<rect x="304.5" y="51.7349" width="1" height="6" fill="#FF6961"/>
<rect x="301" y="57.7349" width="8" height="39" fill="#FF6961"/>
<rect x="304.5" y="96.7349" width="1" height="15" fill="#FF6961"/>
<rect x="321.5" y="82.7349" width="1" height="11" fill="#FF6961"/>
<rect x="318" y="93.7349" width="8" height="30" fill="#FF6961"/>
<rect x="321.5" y="123.735" width="1" height="8" fill="#FF6961"/>
<rect x="220.5" y="75.7349" width="1" height="8" fill="#99E39E"/>
<rect x="217" y="83.7349" width="8" height="57" fill="#99E39E"/>
<rect x="220.5" y="140.735" width="1" height="8" fill="#99E39E"/>
<rect x="114.5" y="93.7349" width="1" height="13" fill="#FF6961"/>
<rect x="111" y="106.735" width="8" height="42" fill="#FF6961"/>
<rect x="114.5" y="148.735" width="1" height="12" fill="#FF6961"/>
<line x1="363" y1="108.235" y2="108.235" stroke="white" stroke-opacity="0.6" stroke-dasharray="4 4"/>
<rect x="363" y="93.7349" width="53" height="25" rx="12.5" fill="#000510"/>
<rect x="363.5" y="94.2349" width="52" height="24" rx="12" stroke="white" stroke-opacity="0.2"/>
<path d="M378.108 111.779V101.243H378.924V111.779H378.108ZM378.624 110.879C378.008 110.879 377.468 110.771 377.004 110.555C376.54 110.331 376.18 110.019 375.924 109.619C375.668 109.219 375.54 108.751 375.54 108.215H376.8C376.808 108.519 376.88 108.799 377.016 109.055C377.16 109.303 377.364 109.503 377.628 109.655C377.9 109.799 378.232 109.871 378.624 109.871C378.96 109.871 379.248 109.815 379.488 109.703C379.736 109.591 379.924 109.439 380.052 109.247C380.18 109.047 380.244 108.819 380.244 108.563C380.244 108.267 380.176 108.023 380.04 107.831C379.904 107.639 379.72 107.483 379.488 107.363C379.264 107.235 379 107.123 378.696 107.027C378.4 106.931 378.088 106.827 377.76 106.715C377.096 106.499 376.6 106.219 376.272 105.875C375.952 105.531 375.792 105.083 375.792 104.531C375.792 104.059 375.904 103.651 376.128 103.307C376.352 102.955 376.664 102.683 377.064 102.491C377.472 102.291 377.952 102.191 378.504 102.191C379.048 102.191 379.524 102.291 379.932 102.491C380.34 102.691 380.66 102.967 380.892 103.319C381.124 103.671 381.24 104.083 381.24 104.555H379.968C379.968 104.339 379.912 104.127 379.8 103.919C379.688 103.711 379.52 103.543 379.296 103.415C379.072 103.279 378.796 103.211 378.468 103.211C378.196 103.203 377.952 103.247 377.736 103.343C377.52 103.439 377.352 103.579 377.232 103.763C377.112 103.947 377.052 104.167 377.052 104.423C377.052 104.679 377.104 104.887 377.208 105.047C377.32 105.199 377.48 105.331 377.688 105.443C377.896 105.555 378.136 105.659 378.408 105.755C378.688 105.843 378.996 105.943 379.332 106.055C379.748 106.191 380.116 106.359 380.436 106.559C380.764 106.751 381.02 107.003 381.204 107.315C381.396 107.619 381.492 108.011 381.492 108.491C381.492 108.907 381.384 109.295 381.168 109.655C380.952 110.015 380.632 110.311 380.208 110.543C379.784 110.767 379.256 110.879 378.624 110.879ZM385.583 110.879C385.047 110.879 384.555 110.783 384.107 110.591C383.667 110.391 383.315 110.095 383.051 109.703C382.795 109.303 382.659 108.803 382.643 108.203H383.843C383.851 108.507 383.923 108.783 384.059 109.031C384.195 109.279 384.391 109.479 384.647 109.631C384.911 109.775 385.223 109.847 385.583 109.847C385.943 109.847 386.243 109.779 386.483 109.643C386.731 109.507 386.915 109.323 387.035 109.091C387.163 108.859 387.227 108.599 387.227 108.311C387.227 107.951 387.139 107.659 386.963 107.435C386.795 107.211 386.563 107.043 386.267 106.931C385.979 106.819 385.655 106.763 385.295 106.763H384.671V105.755H385.295C385.799 105.755 386.199 105.639 386.495 105.407C386.799 105.175 386.951 104.847 386.951 104.423C386.951 104.071 386.835 103.783 386.603 103.559C386.371 103.335 386.031 103.223 385.583 103.223C385.135 103.223 384.779 103.351 384.515 103.607C384.259 103.863 384.115 104.187 384.083 104.579H382.895C382.919 104.107 383.043 103.691 383.267 103.331C383.499 102.963 383.811 102.683 384.203 102.491C384.603 102.291 385.063 102.191 385.583 102.191C386.143 102.191 386.611 102.291 386.987 102.491C387.371 102.683 387.659 102.943 387.851 103.271C388.051 103.599 388.151 103.959 388.151 104.351C388.151 104.647 388.095 104.923 387.983 105.179C387.871 105.427 387.711 105.643 387.503 105.827C387.295 106.011 387.043 106.143 386.747 106.223C387.067 106.287 387.355 106.411 387.611 106.595C387.867 106.779 388.067 107.019 388.211 107.315C388.355 107.603 388.427 107.939 388.427 108.323C388.427 108.779 388.319 109.203 388.103 109.595C387.887 109.979 387.567 110.291 387.143 110.531C386.727 110.763 386.207 110.879 385.583 110.879ZM393.86 110.735V109.019H389.648V108.083L393.668 102.335H395.048V107.975H396.248V109.019H395.048V110.735H393.86ZM390.956 107.975H393.932V103.655L390.956 107.975ZM397.497 110.735V102.335H398.697V105.983L402.057 102.335H403.557L400.437 105.671L403.617 110.735H402.153L399.585 106.607L398.697 107.555V110.735H397.497Z" fill="white"/>
</svg>
