<svg width="113" height="93" viewBox="0 0 113 93" fill="none" xmlns="http://www.w3.org/2000/svg">
<path d="M41.3801 61.7349L46.6001 49.7949H39.5601V47.7349H49.0601V49.4549L43.8801 61.7349H41.3801ZM55.3427 61.9749C54.3961 61.9749 53.5427 61.8082 52.7827 61.4749C52.0227 61.1282 51.4161 60.6482 50.9627 60.0349C50.5227 59.4082 50.3027 58.6749 50.3027 57.8349C50.3027 57.2749 50.4027 56.7549 50.6027 56.2749C50.8027 55.7949 51.0894 55.3815 51.4627 55.0349C51.8361 54.6749 52.2694 54.4082 52.7627 54.2349C52.1094 53.9415 51.5894 53.5349 51.2027 53.0149C50.8294 52.4815 50.6427 51.8882 50.6427 51.2349C50.6427 50.5549 50.8227 49.9349 51.1827 49.3749C51.5427 48.8149 52.0694 48.3615 52.7627 48.0149C53.4694 47.6682 54.3294 47.4949 55.3427 47.4949C56.3561 47.4949 57.2094 47.6682 57.9027 48.0149C58.5961 48.3615 59.1227 48.8149 59.4827 49.3749C59.8427 49.9349 60.0227 50.5549 60.0227 51.2349C60.0227 51.8749 59.8294 52.4682 59.4427 53.0149C59.0694 53.5482 58.5561 53.9549 57.9027 54.2349C58.4094 54.4082 58.8427 54.6749 59.2027 55.0349C59.5761 55.3949 59.8627 55.8149 60.0627 56.2949C60.2761 56.7615 60.3827 57.2749 60.3827 57.8349C60.3827 58.6749 60.1561 59.4082 59.7027 60.0349C59.2494 60.6482 58.6427 61.1282 57.8827 61.4749C57.1361 61.8082 56.2894 61.9749 55.3427 61.9749ZM55.3427 59.9549C56.2227 59.9549 56.8827 59.7415 57.3227 59.3149C57.7761 58.8749 58.0027 58.3215 58.0027 57.6549C58.0027 56.9082 57.7627 56.3349 57.2827 55.9349C56.8161 55.5215 56.1694 55.3149 55.3427 55.3149C54.5161 55.3149 53.8561 55.5215 53.3627 55.9349C52.8827 56.3349 52.6427 56.9082 52.6427 57.6549C52.6427 58.3215 52.8694 58.8749 53.3227 59.3149C53.7894 59.7415 54.4627 59.9549 55.3427 59.9549ZM55.3427 53.4949C56.0627 53.4949 56.6227 53.3082 57.0227 52.9349C57.4361 52.5482 57.6427 52.0682 57.6427 51.4949C57.6427 50.8415 57.4361 50.3415 57.0227 49.9949C56.6227 49.6349 56.0627 49.4549 55.3427 49.4549C54.6227 49.4549 54.0561 49.6349 53.6427 49.9949C53.2427 50.3415 53.0427 50.8415 53.0427 51.4949C53.0427 52.0815 53.2427 52.5615 53.6427 52.9349C54.0561 53.3082 54.6227 53.4949 55.3427 53.4949ZM64.618 61.7349L72.558 47.7349H74.918L66.978 61.7349H64.618ZM74.278 61.9749C73.6513 61.9749 73.078 61.8349 72.558 61.5549C72.0513 61.2615 71.6446 60.8549 71.338 60.3349C71.0313 59.8015 70.878 59.1749 70.878 58.4549C70.878 57.7215 71.0313 57.0949 71.338 56.5749C71.6446 56.0549 72.0513 55.6549 72.558 55.3749C73.078 55.0815 73.6513 54.9349 74.278 54.9349C74.9313 54.9349 75.5046 55.0815 75.998 55.3749C76.5046 55.6549 76.9046 56.0549 77.198 56.5749C77.5046 57.0949 77.658 57.7215 77.658 58.4549C77.658 59.1749 77.5046 59.8015 77.198 60.3349C76.9046 60.8549 76.5046 61.2615 75.998 61.5549C75.4913 61.8349 74.918 61.9749 74.278 61.9749ZM74.258 60.2949C74.538 60.2949 74.7913 60.2282 75.018 60.0949C75.2446 59.9482 75.4246 59.7415 75.558 59.4749C75.6913 59.1949 75.758 58.8549 75.758 58.4549C75.758 58.0415 75.6913 57.7015 75.558 57.4349C75.4246 57.1682 75.2446 56.9682 75.018 56.8349C74.8046 56.6882 74.558 56.6149 74.278 56.6149C74.0113 56.6149 73.7646 56.6882 73.538 56.8349C73.3113 56.9682 73.1313 57.1682 72.998 57.4349C72.8646 57.7015 72.798 58.0415 72.798 58.4549C72.798 58.8549 72.8646 59.1949 72.998 59.4749C73.1313 59.7415 73.3046 59.9482 73.518 60.0949C73.7446 60.2282 73.9913 60.2949 74.258 60.2949ZM65.378 54.5349C64.738 54.5349 64.158 54.3949 63.638 54.1149C63.1313 53.8349 62.7246 53.4282 62.418 52.8949C62.1246 52.3615 61.978 51.7349 61.978 51.0149C61.978 50.2949 62.1246 49.6749 62.418 49.1549C62.7246 48.6215 63.138 48.2149 63.658 47.9349C64.178 47.6549 64.7513 47.5149 65.378 47.5149C66.018 47.5149 66.5913 47.6549 67.098 47.9349C67.6046 48.2149 68.0046 48.6215 68.298 49.1549C68.6046 49.6749 68.758 50.2949 68.758 51.0149C68.758 51.7349 68.6046 52.3615 68.298 52.8949C68.0046 53.4282 67.6046 53.8349 67.098 54.1149C66.5913 54.3949 66.018 54.5349 65.378 54.5349ZM65.358 52.8549C65.638 52.8549 65.8913 52.7882 66.118 52.6549C66.3446 52.5082 66.518 52.3015 66.638 52.0349C66.7713 51.7549 66.838 51.4149 66.838 51.0149C66.838 50.6149 66.7713 50.2749 66.638 49.9949C66.518 49.7149 66.3446 49.5082 66.118 49.3749C65.8913 49.2282 65.6446 49.1549 65.378 49.1549C65.1113 49.1549 64.858 49.2282 64.618 49.3749C64.3913 49.5082 64.2113 49.7149 64.078 49.9949C63.9446 50.2749 63.878 50.6149 63.878 51.0149C63.878 51.4149 63.9446 51.7549 64.078 52.0349C64.2113 52.3015 64.3913 52.5082 64.618 52.6549C64.8446 52.7882 65.0913 52.8549 65.358 52.8549Z" fill="white"/>
<path d="M22.1035 90.7245C19.3897 93.4383 14.9496 93.4614 12.5953 90.4304C7.31591 83.6336 3.66643 75.6766 1.97509 67.1737C-0.169981 56.3897 0.930948 45.2117 5.13866 35.0534C9.34637 24.8951 16.4719 16.2126 25.6141 10.104C34.7564 3.99534 45.5047 0.734863 56.5 0.734863C67.4953 0.734863 78.2437 3.99534 87.3859 10.104C96.5281 16.2126 103.654 24.8951 107.861 35.0534C112.069 45.2117 113.17 56.3897 111.025 67.1737C109.334 75.6766 105.684 83.6336 100.405 90.4304C98.0504 93.4614 93.6103 93.4383 90.8965 90.7245C88.1827 88.0107 88.2394 83.6375 90.4653 80.511C93.8678 75.7322 96.2391 70.2669 97.3937 64.4622C99.0025 56.3742 98.1768 47.9908 95.021 40.3721C91.8652 32.7533 86.5211 26.2415 79.6644 21.66C72.8077 17.0785 64.7465 14.6331 56.5 14.6331C48.2536 14.6331 40.1923 17.0785 33.3356 21.66C26.4789 26.2415 21.1348 32.7533 17.979 40.3721C14.8232 47.9908 13.9975 56.3742 15.6063 64.4622C16.7609 70.2669 19.1323 75.7322 22.5347 80.511C24.7607 83.6375 24.8173 88.0107 22.1035 90.7245Z" fill="white" fill-opacity="0.4"/>
<path d="M22.1035 90.7245C19.3897 93.4383 14.9497 93.4615 12.5954 90.4305C9.2716 86.1514 6.5835 81.3992 4.62603 76.3202C1.83335 69.074 0.589788 61.3231 0.975468 53.567C1.36115 45.8109 3.36752 38.2216 6.86528 31.2882C10.3631 24.3548 15.2746 18.2311 21.2835 13.3118C27.2923 8.39247 34.2652 4.78661 41.7527 2.72658C49.2401 0.666546 57.0762 0.198054 64.7558 1.35129C72.4354 2.50452 79.7882 5.2539 86.3403 9.42225C90.933 12.344 95.0608 15.9174 98.5995 20.0206C101.106 22.927 100.207 27.275 97.0105 29.3996C93.8143 31.5242 89.5383 30.6053 86.9129 27.8059C84.5309 25.2659 81.8337 23.0276 78.8803 21.1487C73.9661 18.0224 68.4515 15.9604 62.6918 15.0955C56.9321 14.2305 51.0551 14.5819 45.4395 16.1269C39.8239 17.672 34.5942 20.3764 30.0876 24.0659C25.581 27.7554 21.8973 32.3481 19.274 37.5481C16.6506 42.7482 15.1459 48.4401 14.8566 54.2572C14.5673 60.0743 15.5 65.8875 17.5945 71.3221C18.8533 74.5884 20.515 77.6744 22.5347 80.5111C24.7607 83.6375 24.8173 88.0107 22.1035 90.7245Z" fill="#99E39E"/>
</svg>
