<svg width="130" height="49" viewBox="0 0 130 49" fill="none" xmlns="http://www.w3.org/2000/svg">
<path d="M86.626 23.9235V26.2498H85.1679V27.7753H86.626V32.9588C86.626 34.7288 87.4267 35.4368 89.4411 35.4368C89.7951 35.4368 90.1322 35.3947 90.4272 35.3441V33.8354C90.1744 33.8607 90.0142 33.8775 89.7361 33.8775C88.8343 33.8775 88.4381 33.4561 88.4381 32.4953V27.7753H90.4272V26.2498H88.4381V23.9235H86.626Z" fill="white"/>
<path d="M95.5588 35.5632C98.2391 35.5632 99.8827 33.768 99.8827 30.7927C99.8827 27.8343 98.2307 26.0306 95.5588 26.0306C92.8786 26.0306 91.2266 27.8343 91.2266 30.7927C91.2266 33.768 92.8702 35.5632 95.5588 35.5632ZM95.5588 33.9534C93.9827 33.9534 93.0977 32.7987 93.0977 30.7927C93.0977 28.8036 93.9827 27.6405 95.5588 27.6405C97.1265 27.6405 98.02 28.8036 98.02 30.7927C98.02 32.7903 97.1265 33.9534 95.5588 33.9534Z" fill="white"/>
<path d="M101.289 35.3862H103.101V29.9667C103.101 28.6772 104.07 27.809 105.444 27.809C105.764 27.809 106.304 27.868 106.456 27.9186V26.1318C106.262 26.0812 105.916 26.0559 105.646 26.0559C104.45 26.0559 103.43 26.7133 103.168 27.6152H103.034V26.2076H101.289V35.3862Z" fill="white"/>
<path d="M110.955 27.573C112.295 27.573 113.172 28.5086 113.214 29.9499H108.578C108.679 28.517 109.615 27.573 110.955 27.573ZM113.205 32.9083C112.868 33.6247 112.118 34.0208 111.022 34.0208C109.573 34.0208 108.637 33.001 108.578 31.3911V31.29H115.06V30.6579C115.06 27.7753 113.517 26.0306 110.963 26.0306C108.376 26.0306 106.732 27.8933 106.732 30.8264C106.732 33.7595 108.342 35.5632 110.972 35.5632C113.071 35.5632 114.537 34.5518 114.95 32.9083H113.205Z" fill="white"/>
<path d="M74.7424 31.9967C74.8821 34.2506 76.7603 35.692 79.5558 35.692C82.5435 35.692 84.413 34.1807 84.413 31.7696C84.413 29.8739 83.3472 28.8256 80.7614 28.2228L79.3724 27.8821C77.73 27.4977 77.0661 26.9823 77.0661 26.0825C77.0661 24.9469 78.0969 24.2043 79.6432 24.2043C81.1108 24.2043 82.1242 24.9294 82.3076 26.0913H84.212C84.0985 23.9684 82.229 22.4746 79.6694 22.4746C76.9176 22.4746 75.0831 23.9684 75.0831 26.2136C75.0831 28.0656 76.1226 29.1663 78.4027 29.6992L80.0276 30.0923C81.6961 30.4854 82.4299 31.062 82.4299 32.0229C82.4299 33.1411 81.2768 33.9536 79.7043 33.9536C78.0183 33.9536 76.8477 33.1935 76.6817 31.9967H74.7424Z" fill="white"/>
<path d="M55.9706 26.0559C54.7232 26.0559 53.6443 26.6796 53.0881 27.7247H52.9532V26.2076H51.2085V38.4373H53.0206V33.9955H53.1639C53.6443 34.9648 54.681 35.5379 55.9875 35.5379C58.3053 35.5379 59.7803 33.709 59.7803 30.7927C59.7803 27.8765 58.3053 26.0559 55.9706 26.0559ZM55.4565 33.9113C53.9393 33.9113 52.9869 32.7144 52.9869 30.8011C52.9869 28.8794 53.9393 27.6826 55.4649 27.6826C56.9989 27.6826 57.9176 28.8542 57.9176 30.7927C57.9176 32.7397 56.9989 33.9113 55.4565 33.9113Z" fill="white"/>
<path d="M66.1212 26.0559C64.8738 26.0559 63.7949 26.6796 63.2386 27.7247H63.1038V26.2076H61.3591V38.4373H63.1712V33.9955H63.3145C63.7949 34.9648 64.8316 35.5379 66.138 35.5379C68.4559 35.5379 69.9309 33.709 69.9309 30.7927C69.9309 27.8765 68.4559 26.0559 66.1212 26.0559ZM65.6071 33.9113C64.0899 33.9113 63.1375 32.7144 63.1375 30.8011C63.1375 28.8794 64.0899 27.6826 65.6155 27.6826C67.1495 27.6826 68.0682 28.8542 68.0682 30.7927C68.0682 32.7397 67.1495 33.9113 65.6071 33.9113Z" fill="white"/>
<path d="M47.9572 35.3862H50.0364L45.485 22.7804H43.3796L38.8282 35.3862H40.8375L41.9994 32.0404H46.8041L47.9572 35.3862ZM44.3319 25.0692H44.4804L46.3062 30.3981H42.4973L44.3319 25.0692Z" fill="white"/>
<path d="M40.0457 13.2724V19.3535H42.2413C44.0534 19.3535 45.1027 18.2367 45.1027 16.294C45.1027 14.3807 44.045 13.2724 42.2413 13.2724H40.0457ZM40.9896 14.1321H42.1359C43.396 14.1321 44.1419 14.9328 44.1419 16.3066C44.1419 17.7015 43.4086 18.4938 42.1359 18.4938H40.9896V14.1321Z" fill="white"/>
<path d="M48.3165 19.442C49.6567 19.442 50.4784 18.5444 50.4784 17.0567C50.4784 15.5775 49.6524 14.6757 48.3165 14.6757C46.9764 14.6757 46.1504 15.5775 46.1504 17.0567C46.1504 18.5444 46.9722 19.442 48.3165 19.442ZM48.3165 18.6371C47.5285 18.6371 47.086 18.0597 47.086 17.0567C47.086 16.0622 47.5285 15.4806 48.3165 15.4806C49.1004 15.4806 49.5471 16.0622 49.5471 17.0567C49.5471 18.0555 49.1004 18.6371 48.3165 18.6371Z" fill="white"/>
<path d="M57.4766 14.7642H56.5705L55.753 18.2662H55.6813L54.7373 14.7642H53.8692L52.9252 18.2662H52.8578L52.036 14.7642H51.1173L52.3816 19.3535H53.3129L54.2569 15.9737H54.3286L55.2768 19.3535H56.2165L57.4766 14.7642Z" fill="white"/>
<path d="M58.5201 19.3535H59.4261V16.669C59.4261 15.9526 59.8518 15.5059 60.5218 15.5059C61.1919 15.5059 61.5122 15.8725 61.5122 16.61V19.3535H62.4182V16.3825C62.4182 15.291 61.8535 14.6757 60.8295 14.6757C60.1383 14.6757 59.6832 14.9833 59.4598 15.4933H59.3924V14.7642H58.5201V19.3535Z" fill="white"/>
<path d="M63.8452 19.3535H64.7512V12.9731H63.8452V19.3535Z" fill="white"/>
<path d="M68.1589 19.442C69.499 19.442 70.3208 18.5444 70.3208 17.0567C70.3208 15.5775 69.4948 14.6757 68.1589 14.6757C66.8187 14.6757 65.9927 15.5775 65.9927 17.0567C65.9927 18.5444 66.8145 19.442 68.1589 19.442ZM68.1589 18.6371C67.3708 18.6371 66.9283 18.0597 66.9283 17.0567C66.9283 16.0622 67.3708 15.4806 68.1589 15.4806C68.9427 15.4806 69.3894 16.0622 69.3894 17.0567C69.3894 18.0555 68.9427 18.6371 68.1589 18.6371Z" fill="white"/>
<path d="M73.0204 18.6666C72.5274 18.6666 72.1691 18.4264 72.1691 18.0134C72.1691 17.6088 72.4557 17.3939 73.0878 17.3517L74.2088 17.2801V17.6636C74.2088 18.2325 73.7031 18.6666 73.0204 18.6666ZM72.7886 19.4294C73.3913 19.4294 73.8928 19.1681 74.1667 18.7087H74.2383V19.3535H75.1107V16.2181C75.1107 15.2488 74.4617 14.6757 73.3112 14.6757C72.2703 14.6757 71.5286 15.1814 71.4359 15.9695H72.3124C72.4136 15.645 72.7633 15.4595 73.2691 15.4595C73.8885 15.4595 74.2088 15.7335 74.2088 16.2181V16.6143L72.9656 16.6859C71.8741 16.7533 71.2589 17.2295 71.2589 18.0555C71.2589 18.8942 71.9036 19.4294 72.7886 19.4294Z" fill="white"/>
<path d="M78.1854 19.4294C78.8175 19.4294 79.3527 19.1302 79.6267 18.6287H79.6983V19.3535H80.5664V12.9731H79.6604V15.4933H79.593C79.3443 14.9876 78.8133 14.6883 78.1854 14.6883C77.0265 14.6883 76.2806 15.607 76.2806 17.0567C76.2806 18.5107 77.018 19.4294 78.1854 19.4294ZM78.4425 15.5017C79.201 15.5017 79.6772 16.1043 79.6772 17.061C79.6772 18.0218 79.2052 18.616 78.4425 18.616C77.6755 18.616 77.2161 18.0302 77.2161 17.0567C77.2161 16.0917 77.6797 15.5017 78.4425 15.5017Z" fill="white"/>
<path d="M86.4419 19.442C87.7821 19.442 88.6038 18.5444 88.6038 17.0567C88.6038 15.5775 87.7779 14.6757 86.4419 14.6757C85.1018 14.6757 84.2758 15.5775 84.2758 17.0567C84.2758 18.5444 85.0976 19.442 86.4419 19.442ZM86.4419 18.6371C85.6539 18.6371 85.2114 18.0597 85.2114 17.0567C85.2114 16.0622 85.6539 15.4806 86.4419 15.4806C87.2258 15.4806 87.6725 16.0622 87.6725 17.0567C87.6725 18.0555 87.2258 18.6371 86.4419 18.6371Z" fill="white"/>
<path d="M89.8032 19.3535H90.7093V16.669C90.7093 15.9526 91.1349 15.5059 91.805 15.5059C92.4751 15.5059 92.7953 15.8725 92.7953 16.61V19.3535H93.7014V16.3825C93.7014 15.291 93.1367 14.6757 92.1126 14.6757C91.4215 14.6757 90.9664 14.9833 90.743 15.4933H90.6756V14.7642H89.8032V19.3535Z" fill="white"/>
<path d="M97.8743 13.6221V14.7853H97.1453V15.548H97.8743V18.1398C97.8743 19.0248 98.2747 19.3788 99.2819 19.3788C99.4589 19.3788 99.6275 19.3577 99.775 19.3324V18.5781C99.6485 18.5907 99.5685 18.5992 99.4294 18.5992C98.9785 18.5992 98.7804 18.3884 98.7804 17.908V15.548H99.775V14.7853H98.7804V13.6221H97.8743Z" fill="white"/>
<path d="M100.991 19.3535H101.897V16.6732C101.897 15.9779 102.31 15.5101 103.052 15.5101C103.693 15.5101 104.034 15.881 104.034 16.6143V19.3535H104.94V16.3909C104.94 15.2994 104.337 14.6799 103.36 14.6799C102.668 14.6799 102.184 14.9876 101.96 15.5017H101.889V12.9731H100.991V19.3535Z" fill="white"/>
<path d="M108.209 15.4469C108.879 15.4469 109.317 15.9147 109.338 16.6353H107.02C107.071 15.9189 107.538 15.4469 108.209 15.4469ZM109.334 18.1145C109.165 18.4727 108.79 18.6708 108.242 18.6708C107.517 18.6708 107.05 18.1609 107.02 17.356V17.3054H110.261V16.9893C110.261 15.548 109.49 14.6757 108.213 14.6757C106.919 14.6757 106.097 15.607 106.097 17.0736C106.097 18.5402 106.902 19.442 108.217 19.442C109.266 19.442 110 18.9363 110.206 18.1145H109.334Z" fill="white"/>
<path d="M28.9959 25.0403C29.0179 23.3334 29.9346 21.7183 31.3887 20.8243C30.4714 19.5141 28.9348 18.6835 27.3362 18.6334C25.6311 18.4545 23.9781 19.6537 23.1092 19.6537C22.2235 19.6537 20.8858 18.6512 19.4452 18.6809C17.5675 18.7415 15.817 19.8091 14.9035 21.4507C12.9397 24.8506 14.4045 29.8474 16.2856 32.5956C17.2268 33.9414 18.3267 35.4446 19.766 35.3913C21.1744 35.3329 21.7004 34.4932 23.4004 34.4932C25.0847 34.4932 25.5782 35.3913 27.0467 35.3574C28.558 35.3329 29.5101 34.0057 30.4183 32.6472C31.0945 31.6883 31.6149 30.6285 31.9601 29.5071C30.184 28.7559 28.998 26.9686 28.9959 25.0403Z" fill="white"/>
<path d="M26.2222 16.8261C27.0462 15.8369 27.4522 14.5654 27.3539 13.2817C26.095 13.414 24.9321 14.0156 24.097 14.9669C23.2803 15.8963 22.8553 17.1454 22.9357 18.38C24.195 18.393 25.4331 17.8076 26.2222 16.8261Z" fill="white"/>
</svg>
