<svg width="133" height="45" viewBox="0 0 133 45" fill="none" xmlns="http://www.w3.org/2000/svg">
<path d="M66.9574 24.3647C64.7682 24.3647 62.9839 26.0298 62.9839 28.3232C62.9839 30.6027 64.7682 32.2818 66.9574 32.2818C69.1475 32.2818 70.9318 30.6027 70.9318 28.3232C70.9309 26.0298 69.1466 24.3647 66.9574 24.3647ZM66.9574 30.7237C65.7576 30.7237 64.7236 29.7343 64.7236 28.3242C64.7236 26.8992 65.7586 25.9246 66.9574 25.9246C68.1572 25.9246 69.1912 26.8992 69.1912 28.3242C69.1912 29.7333 68.1572 30.7237 66.9574 30.7237ZM58.2882 24.3647C56.099 24.3647 54.3148 26.0298 54.3148 28.3232C54.3148 30.6027 56.099 32.2818 58.2882 32.2818C60.4783 32.2818 62.2626 30.6027 62.2626 28.3232C62.2626 26.0298 60.4783 24.3647 58.2882 24.3647ZM58.2882 30.7237C57.0885 30.7237 56.0544 29.7343 56.0544 28.3242C56.0544 26.8992 57.0894 25.9246 58.2882 25.9246C59.488 25.9246 60.5221 26.8992 60.5221 28.3242C60.523 29.7333 59.488 30.7237 58.2882 30.7237ZM47.9772 25.5803V27.2594H51.9962C51.8761 28.2041 51.5615 28.8938 51.0813 29.3731C50.4967 29.9577 49.5818 30.6027 47.9772 30.6027C45.5032 30.6027 43.569 28.608 43.569 26.1341C43.569 23.6601 45.5032 21.6654 47.9772 21.6654C49.3119 21.6654 50.2864 22.1904 51.0059 22.8652L52.1907 21.6803C51.1855 20.7207 49.8517 19.9863 47.9772 19.9863C44.5882 19.9863 41.7391 22.7451 41.7391 26.1341C41.7391 29.523 44.5882 32.2818 47.9772 32.2818C49.8061 32.2818 51.1864 31.6814 52.2652 30.5571C53.3747 29.4476 53.72 27.8876 53.72 26.6283C53.72 26.2392 53.6902 25.879 53.6297 25.5793L47.9772 25.5803ZM90.1485 26.8843C89.819 26 88.8137 24.3647 86.7595 24.3647C84.7202 24.3647 83.0253 25.9693 83.0253 28.3232C83.0253 30.5422 84.7053 32.2818 86.954 32.2818C88.7681 32.2818 89.818 31.1723 90.2536 30.5273L88.904 29.6272C88.4544 30.2872 87.8392 30.7218 86.954 30.7218C86.0698 30.7218 85.4397 30.3169 85.0348 29.5221L90.3281 27.3329L90.1485 26.8843ZM84.75 28.2041C84.7053 26.6739 85.9349 25.8949 86.82 25.8949C87.5097 25.8949 88.0942 26.2402 88.2897 26.7344L84.75 28.2041ZM80.447 32.0426H82.1857V20.407H80.447V32.0426ZM77.597 25.2498H77.5375C77.1475 24.7844 76.3973 24.3647 75.4535 24.3647C73.4737 24.3647 71.6597 26.1043 71.6597 28.3391C71.6597 30.558 73.4737 32.2827 75.4535 32.2827C76.3982 32.2827 77.1475 31.8629 77.5375 31.3836H77.597V31.9532C77.597 33.4676 76.7873 34.2774 75.4832 34.2774C74.4184 34.2774 73.7585 33.5132 73.4886 32.8682L71.9742 33.4983C72.4089 34.5473 73.5631 35.8373 75.4832 35.8373C77.5226 35.8373 79.2473 34.6376 79.2473 31.7131V24.6057H77.598L77.597 25.2498ZM75.6033 30.7237C74.4036 30.7237 73.3993 29.7185 73.3993 28.3391C73.3993 26.9438 74.4036 25.9246 75.6033 25.9246C76.7873 25.9246 77.7171 26.9438 77.7171 28.3391C77.7171 29.7185 76.7873 30.7237 75.6033 30.7237ZM98.2964 20.407H94.1349V32.0426H95.8708V27.6345H98.2955C100.22 27.6345 102.113 26.2411 102.113 24.0212C102.113 21.8013 100.221 20.407 98.2964 20.407ZM98.3411 26.0149H95.8708V22.0266H98.3411C99.6395 22.0266 100.377 23.1016 100.377 24.0212C100.377 24.9222 99.6395 26.0149 98.3411 26.0149ZM109.075 24.3442C107.817 24.3442 106.515 24.898 105.976 26.1257L107.518 26.7688C107.847 26.1257 108.461 25.9153 109.104 25.9153C110.003 25.9153 110.916 26.4542 110.931 27.412V27.5321C110.616 27.3524 109.942 27.0834 109.119 27.0834C107.458 27.0834 105.766 27.9965 105.766 29.7026C105.766 31.2598 107.128 32.2622 108.655 32.2622C109.822 32.2622 110.466 31.7382 110.87 31.1239H110.93V32.0221H112.607V27.5609C112.608 25.4965 111.065 24.3442 109.075 24.3442ZM108.864 30.7209C108.297 30.7209 107.503 30.4361 107.503 29.7324C107.503 28.8342 108.491 28.4898 109.345 28.4898C110.107 28.4898 110.467 28.6546 110.931 28.8789C110.796 29.9577 109.868 30.7209 108.864 30.7209ZM118.715 24.5983L116.724 29.6431H116.664L114.598 24.5983H112.727L115.826 31.6489L114.059 35.5711H115.87L120.646 24.5983H118.715ZM103.072 32.0426H104.808V20.407H103.072V32.0426Z" fill="white"/>
<path d="M47.6738 13.6534C47.6738 14.4334 47.4429 15.0542 46.9803 15.5177C46.4554 16.0687 45.7703 16.3442 44.9289 16.3442C44.1229 16.3442 43.4369 16.065 42.8738 15.5065C42.3097 14.9471 42.0277 14.2546 42.0277 13.4281C42.0277 12.6007 42.3097 11.9082 42.8738 11.3497C43.4369 10.7903 44.1229 10.5111 44.9289 10.5111C45.3291 10.5111 45.7117 10.5893 46.0747 10.7447C46.4386 10.9011 46.73 11.1086 46.9478 11.3683L46.4572 11.8598C46.0877 11.4177 45.5786 11.1971 44.928 11.1971C44.3397 11.1971 43.8315 11.4037 43.4025 11.817C42.9734 12.2302 42.7593 12.7673 42.7593 13.4272C42.7593 14.0871 42.9734 14.6242 43.4025 15.0374C43.8315 15.4507 44.3397 15.6573 44.928 15.6573C45.5516 15.6573 46.0719 15.4498 46.488 15.0337C46.7579 14.7628 46.9142 14.3859 46.9561 13.9028H44.928V13.2317H47.6337C47.6617 13.3779 47.6738 13.5184 47.6738 13.6534Z" fill="white"/>
<path d="M51.9647 11.3209H49.4218V13.0912H51.7152V13.7623H49.4218V15.5326H51.9647V16.2196H48.7042V10.6349H51.9647V11.3209Z" fill="white"/>
<path d="M54.9905 16.2196H54.2729V11.3209H52.7129V10.6349H56.5505V11.3209H54.9905V16.2196Z" fill="white"/>
<path d="M59.3269 16.2196V10.6349H60.0445V16.2196H59.3269Z" fill="white"/>
<path d="M63.227 16.2196H62.5094V11.3209H60.9494V10.6349H64.787V11.3209H63.227V16.2196Z" fill="white"/>
<path d="M72.0514 15.4982C71.5023 16.0622 70.82 16.3443 70.0037 16.3443C69.1874 16.3443 68.5052 16.0622 67.957 15.4982C67.4078 14.9342 67.1342 14.2435 67.1342 13.4272C67.1342 12.611 67.4078 11.9203 67.957 11.3563C68.5052 10.7922 69.1874 10.5093 70.0037 10.5093C70.8154 10.5093 71.4967 10.7932 72.0477 11.36C72.5987 11.9268 72.8742 12.6156 72.8742 13.4272C72.8742 14.2435 72.5996 14.9342 72.0514 15.4982ZM68.4866 15.03C68.8998 15.4489 69.4052 15.6574 70.0037 15.6574C70.6022 15.6574 71.1085 15.4479 71.5209 15.03C71.9341 14.6112 72.1417 14.0769 72.1417 13.4272C72.1417 12.7776 71.9341 12.2433 71.5209 11.8245C71.1085 11.4056 70.6022 11.1971 70.0037 11.1971C69.4052 11.1971 68.8998 11.4065 68.4866 11.8245C68.0742 12.2433 67.8667 12.7776 67.8667 13.4272C67.8667 14.0769 68.0742 14.6112 68.4866 15.03Z" fill="white"/>
<path d="M73.8813 16.2196V10.6349H74.7544L77.4685 14.9788H77.4992L77.4685 13.9029V10.6349H78.1861V16.2196H77.4369L74.5971 11.6644H74.5664L74.5971 12.7403V16.2196H73.8813Z" fill="white"/>
<path d="M47.6738 13.6534C47.6738 14.4334 47.4429 15.0542 46.9803 15.5177C46.4554 16.0687 45.7703 16.3442 44.9289 16.3442C44.1229 16.3442 43.4369 16.065 42.8738 15.5065C42.3097 14.9471 42.0277 14.2546 42.0277 13.4281C42.0277 12.6007 42.3097 11.9082 42.8738 11.3497C43.4369 10.7903 44.1229 10.5111 44.9289 10.5111C45.3291 10.5111 45.7117 10.5893 46.0747 10.7447C46.4386 10.9011 46.73 11.1086 46.9478 11.3683L46.4572 11.8598C46.0877 11.4177 45.5786 11.1971 44.928 11.1971C44.3397 11.1971 43.8315 11.4037 43.4025 11.817C42.9734 12.2302 42.7593 12.7673 42.7593 13.4272C42.7593 14.0871 42.9734 14.6242 43.4025 15.0374C43.8315 15.4507 44.3397 15.6573 44.928 15.6573C45.5516 15.6573 46.0719 15.4498 46.488 15.0337C46.7579 14.7628 46.9142 14.3859 46.9561 13.9028H44.928V13.2317H47.6337C47.6617 13.3779 47.6738 13.5184 47.6738 13.6534Z" stroke="white" stroke-width="0.169231" stroke-miterlimit="10"/>
<path d="M51.9647 11.3209H49.4218V13.0912H51.7152V13.7623H49.4218V15.5326H51.9647V16.2196H48.7042V10.6349H51.9647V11.3209Z" stroke="white" stroke-width="0.169231" stroke-miterlimit="10"/>
<path d="M54.9905 16.2196H54.2729V11.3209H52.7129V10.6349H56.5505V11.3209H54.9905V16.2196Z" stroke="white" stroke-width="0.169231" stroke-miterlimit="10"/>
<path d="M59.3269 16.2196V10.6349H60.0445V16.2196H59.3269Z" stroke="white" stroke-width="0.169231" stroke-miterlimit="10"/>
<path d="M63.227 16.2196H62.5094V11.3209H60.9494V10.6349H64.787V11.3209H63.227V16.2196Z" stroke="white" stroke-width="0.169231" stroke-miterlimit="10"/>
<path d="M72.0514 15.4982C71.5023 16.0622 70.82 16.3443 70.0037 16.3443C69.1874 16.3443 68.5052 16.0622 67.957 15.4982C67.4078 14.9342 67.1342 14.2435 67.1342 13.4272C67.1342 12.611 67.4078 11.9203 67.957 11.3563C68.5052 10.7922 69.1874 10.5093 70.0037 10.5093C70.8154 10.5093 71.4967 10.7932 72.0477 11.36C72.5987 11.9268 72.8742 12.6156 72.8742 13.4272C72.8742 14.2435 72.5996 14.9342 72.0514 15.4982ZM68.4866 15.03C68.8998 15.4489 69.4052 15.6574 70.0037 15.6574C70.6022 15.6574 71.1085 15.4479 71.5209 15.03C71.9341 14.6112 72.1417 14.0769 72.1417 13.4272C72.1417 12.7776 71.9341 12.2433 71.5209 11.8245C71.1085 11.4056 70.6022 11.1971 70.0037 11.1971C69.4052 11.1971 68.8998 11.4065 68.4866 11.8245C68.0742 12.2433 67.8667 12.7776 67.8667 13.4272C67.8667 14.0769 68.0742 14.6112 68.4866 15.03Z" stroke="white" stroke-width="0.169231" stroke-miterlimit="10"/>
<path d="M73.8813 16.2196V10.6349H74.7544L77.4685 14.9788H77.4992L77.4685 13.9029V10.6349H78.1861V16.2196H77.4369L74.5971 11.6644H74.5664L74.5971 12.7403V16.2196H73.8813Z" stroke="white" stroke-width="0.169231" stroke-miterlimit="10"/>
<g filter="url(#filter0_ii_1_1070)">
<path d="M13.252 11.1358C12.9811 11.4225 12.821 11.8674 12.821 12.4435V33.0284C12.821 33.6055 12.9811 34.0495 13.252 34.3362L13.3209 34.4032L24.8522 22.8719V22.736V22.6001L13.3209 11.0679L13.252 11.1358Z" fill="url(#paint0_linear_1_1070)"/>
<path d="M28.6953 26.7167L24.8522 22.8717V22.7358V22.5999L28.6962 18.7559L28.7828 18.8052L33.3371 21.3927C34.6373 22.1318 34.6373 23.3408 33.3371 24.0808L28.7828 26.6683L28.6953 26.7167Z" fill="url(#paint1_linear_1_1070)"/>
<g filter="url(#filter1_i_1_1070)">
<path d="M28.7828 26.6674L24.8512 22.7358L13.252 34.336C13.6801 34.7902 14.3884 34.8461 15.1861 34.3937L28.7828 26.6674Z" fill="url(#paint2_linear_1_1070)"/>
</g>
<path d="M28.7828 18.8043L15.1861 11.0789C14.3884 10.6256 13.6801 10.6824 13.252 11.1366L24.8521 22.7368L28.7828 18.8043Z" fill="url(#paint3_linear_1_1070)"/>
</g>
<defs>
<filter id="filter0_ii_1_1070" x="12.821" y="10.7661" width="21.4912" height="23.9399" filterUnits="userSpaceOnUse" color-interpolation-filters="sRGB">
<feFlood flood-opacity="0" result="BackgroundImageFix"/>
<feBlend mode="normal" in="SourceGraphic" in2="BackgroundImageFix" result="shape"/>
<feColorMatrix in="SourceAlpha" type="matrix" values="0 0 0 0 0 0 0 0 0 0 0 0 0 0 0 0 0 0 127 0" result="hardAlpha"/>
<feOffset dy="-0.126923"/>
<feComposite in2="hardAlpha" operator="arithmetic" k2="-1" k3="1"/>
<feColorMatrix type="matrix" values="0 0 0 0 0 0 0 0 0 0 0 0 0 0 0 0 0 0 0.12 0"/>
<feBlend mode="normal" in2="shape" result="effect1_innerShadow_1_1070"/>
<feColorMatrix in="SourceAlpha" type="matrix" values="0 0 0 0 0 0 0 0 0 0 0 0 0 0 0 0 0 0 127 0" result="hardAlpha"/>
<feOffset dy="0.126923"/>
<feComposite in2="hardAlpha" operator="arithmetic" k2="-1" k3="1"/>
<feColorMatrix type="matrix" values="0 0 0 0 1 0 0 0 0 1 0 0 0 0 1 0 0 0 0.25 0"/>
<feBlend mode="normal" in2="effect1_innerShadow_1_1070" result="effect2_innerShadow_1_1070"/>
</filter>
<filter id="filter1_i_1_1070" x="13.252" y="22.7358" width="15.5308" height="11.9702" filterUnits="userSpaceOnUse" color-interpolation-filters="sRGB">
<feFlood flood-opacity="0" result="BackgroundImageFix"/>
<feBlend mode="normal" in="SourceGraphic" in2="BackgroundImageFix" result="shape"/>
<feColorMatrix in="SourceAlpha" type="matrix" values="0 0 0 0 0 0 0 0 0 0 0 0 0 0 0 0 0 0 127 0" result="hardAlpha"/>
<feOffset dy="-0.126923"/>
<feComposite in2="hardAlpha" operator="arithmetic" k2="-1" k3="1"/>
<feColorMatrix type="matrix" values="0 0 0 0 0 0 0 0 0 0 0 0 0 0 0 0 0 0 0.08 0"/>
<feBlend mode="normal" in2="shape" result="effect1_innerShadow_1_1070"/>
</filter>
<linearGradient id="paint0_linear_1_1070" x1="23.83" y1="12.2257" x2="8.20983" y2="27.8459" gradientUnits="userSpaceOnUse">
<stop stop-color="#00A0FF"/>
<stop offset="0.0066" stop-color="#00A1FF"/>
<stop offset="0.2601" stop-color="#00BEFF"/>
<stop offset="0.5122" stop-color="#00D2FF"/>
<stop offset="0.7604" stop-color="#00DFFF"/>
<stop offset="1" stop-color="#00E3FF"/>
</linearGradient>
<linearGradient id="paint1_linear_1_1070" x1="35.0297" y1="22.7358" x2="12.5089" y2="22.7358" gradientUnits="userSpaceOnUse">
<stop stop-color="#FFE000"/>
<stop offset="0.4087" stop-color="#FFBD00"/>
<stop offset="0.7754" stop-color="#FFA500"/>
<stop offset="1" stop-color="#FF9C00"/>
</linearGradient>
<linearGradient id="paint2_linear_1_1070" x1="26.6477" y1="24.8709" x2="5.46477" y2="46.0538" gradientUnits="userSpaceOnUse">
<stop stop-color="#FF3A44"/>
<stop offset="1" stop-color="#C31162"/>
</linearGradient>
<linearGradient id="paint3_linear_1_1070" x1="10.3306" y1="4.28412" x2="19.7894" y2="13.7429" gradientUnits="userSpaceOnUse">
<stop stop-color="#32A071"/>
<stop offset="0.0685" stop-color="#2DA771"/>
<stop offset="0.4762" stop-color="#15CF74"/>
<stop offset="0.8009" stop-color="#06E775"/>
<stop offset="1" stop-color="#00F076"/>
</linearGradient>
</defs>
</svg>
