<svg width="32" height="31" viewBox="0 0 32 31" fill="none" xmlns="http://www.w3.org/2000/svg">
<path d="M16.0011 6.41455C19.0467 6.41455 21.5157 4.9786 21.5157 3.20727C21.5157 1.43594 19.0467 0 16.0011 0C12.9554 0 10.4865 1.43594 10.4865 3.20727C10.4865 4.9786 12.9554 6.41455 16.0011 6.41455Z" fill="#E6007A"/>
<path d="M16.0011 30.5808C19.0467 30.5808 21.5157 29.1449 21.5157 27.3735C21.5157 25.6022 19.0467 24.1663 16.0011 24.1663C12.9554 24.1663 10.4865 25.6022 10.4865 27.3735C10.4865 29.1449 12.9554 30.5808 16.0011 30.5808Z" fill="#E6007A"/>
<path d="M8.31642 10.8547C9.83923 8.21718 9.82935 5.36059 8.29434 4.47433C6.75934 3.58807 4.28048 5.00774 2.75767 7.64525C1.23485 10.2828 1.24474 13.1394 2.77974 14.0256C4.31475 14.9119 6.7936 13.4922 8.31642 10.8547Z" fill="#E6007A"/>
<path d="M29.2409 22.9355C30.7637 20.298 30.7547 17.4419 29.2207 16.5563C27.6867 15.6706 25.2087 17.0907 23.6859 19.7283C22.1631 22.3658 22.1721 25.2219 23.7061 26.1075C25.2401 26.9932 27.7181 25.5731 29.2409 22.9355Z" fill="#E6007A"/>
<path d="M8.29398 26.1067C9.82898 25.2205 9.83887 22.3639 8.31605 19.7264C6.79324 17.0888 4.31438 15.6692 2.77938 16.5554C1.24437 17.4417 1.23449 20.2983 2.7573 22.9358C4.28012 25.5733 6.75897 26.993 8.29398 26.1067Z" fill="#E6007A"/>
<path d="M29.2224 14.0263C30.7564 13.1406 30.7654 10.2845 29.2426 7.64698C27.7198 5.00947 25.2418 3.58931 23.7078 4.47498C22.1738 5.36064 22.1648 8.21674 23.6876 10.8543C25.2104 13.4918 27.6884 14.9119 29.2224 14.0263Z" fill="#E6007A"/>
</svg>
