<svg width="118" height="119" viewBox="0 0 118 119" fill="none" xmlns="http://www.w3.org/2000/svg">
<path opacity="0.35" d="M90.1196 56.6426C90.6508 50.3042 89.2588 43.9527 86.13 38.4376C83.0012 32.9225 78.2847 28.507 72.6115 25.7818C66.9383 23.0565 60.5789 22.1515 54.3842 23.1878C48.1895 24.2241 42.4549 27.1523 37.9475 31.5806C33.4401 36.0089 30.3749 41.7262 29.162 47.9675C27.9492 54.2089 28.6464 60.6767 31.1605 66.5057C33.6745 72.3346 37.8856 77.2468 43.2302 80.5849C48.5748 83.923 54.7981 85.528 61.0676 85.1851L60.8821 81.7049C55.3123 82.0095 49.7835 80.5837 45.0354 77.6181C40.2872 74.6525 36.5461 70.2885 34.3126 65.1101C32.0791 59.9317 31.4597 54.1857 32.5372 48.6408C33.6148 43.096 36.3379 38.0168 40.3422 34.0826C44.3466 30.1485 49.4413 27.5471 54.9446 26.6265C60.448 25.7059 66.0977 26.5099 71.1377 28.931C76.1778 31.3521 80.3679 35.2748 83.1476 40.1744C85.9272 45.074 87.1638 50.7167 86.6919 56.3478L90.1196 56.6426Z" fill="#C4C4C4"/>
<g filter="url(#filter0_d_1_43)">
<path d="M94.2858 54C94.2858 61.188 92.0905 68.2046 87.9938 74.1108C83.897 80.0171 78.0942 84.5314 71.3617 87.0495C64.6292 89.5677 57.2883 89.9697 50.3211 88.2018C43.3539 86.4338 37.0928 82.5802 32.3756 77.1566C27.6584 71.733 24.7101 64.9981 23.9252 57.8531C23.1403 50.7081 24.5563 43.4937 27.9836 37.1754C31.4109 30.8571 36.6861 25.7362 43.1033 22.4979C49.5205 19.2596 56.7737 18.0584 63.8923 19.055L62.2861 30.5277C57.5046 29.8583 52.6327 30.6651 48.3223 32.8402C44.0119 35.0154 40.4685 38.4551 38.1664 42.699C35.8643 46.943 34.9133 51.7888 35.4405 56.5881C35.9677 61.3874 37.9481 65.9111 41.1166 69.5542C44.2851 73.1972 48.4906 75.7856 53.1704 76.9731C57.8502 78.1607 62.7811 77.8906 67.3033 76.1992C71.8255 74.5077 75.7232 71.4755 78.4749 67.5083C81.2267 63.5411 82.7012 58.8281 82.7012 54L94.2858 54Z" fill="#99E39E"/>
</g>
<path d="M48.2621 56.7452V51.6348H49.4318V56.7452H48.2621ZM46.1271 54.7578V53.6222H51.5782V54.7578H46.1271ZM52.8843 57.4833L55.8483 50.7036H51.8509V49.5339H57.2452V50.5105L54.3039 57.4833H52.8843ZM60.7059 57.6196C60.1381 57.6196 59.646 57.5212 59.2296 57.3243C58.8208 57.1199 58.499 56.8436 58.2643 56.4953C58.0296 56.1395 57.8895 55.7382 57.8441 55.2916H59.1728C59.2409 55.6247 59.4113 55.9048 59.6838 56.1319C59.9564 56.3515 60.2971 56.4613 60.7059 56.4613C61.0163 56.4613 61.2813 56.3893 61.5009 56.2455C61.7204 56.0941 61.8908 55.8935 62.0119 55.6436C62.1406 55.3862 62.2049 55.0985 62.2049 54.7805C62.2049 54.455 62.1406 54.1711 62.0119 53.9288C61.8908 53.6865 61.7204 53.501 61.5009 53.3723C61.2813 53.2361 61.0277 53.1679 60.74 53.1679C60.3841 53.1679 60.0775 53.2512 59.8201 53.4178C59.5703 53.5768 59.3886 53.7774 59.275 54.0197H57.9577L58.6163 49.5339H62.9999V50.7263H59.6384L59.275 52.691C59.4491 52.5017 59.6801 52.3503 59.9677 52.2367C60.2554 52.1156 60.5848 52.055 60.9558 52.055C61.3721 52.055 61.7393 52.1269 62.0573 52.2708C62.3753 52.4146 62.6441 52.6115 62.8636 52.8613C63.0832 53.1111 63.2459 53.4026 63.3519 53.7357C63.4655 54.0613 63.5223 54.4058 63.5223 54.7692C63.5223 55.178 63.4541 55.5565 63.3179 55.9048C63.1816 56.2455 62.9885 56.5445 62.7387 56.802C62.4964 57.0594 62.2012 57.26 61.8529 57.4038C61.5122 57.5477 61.1299 57.6196 60.7059 57.6196ZM65.8749 57.4833L70.3834 49.5339H71.7234L67.215 57.4833H65.8749ZM71.36 57.6196C71.0042 57.6196 70.6786 57.5401 70.3834 57.3811C70.0957 57.2146 69.8648 56.9837 69.6906 56.6884C69.5165 56.3856 69.4294 56.0297 69.4294 55.6209C69.4294 55.2045 69.5165 54.8487 69.6906 54.5534C69.8648 54.2581 70.0957 54.031 70.3834 53.872C70.6786 53.7055 71.0042 53.6222 71.36 53.6222C71.731 53.6222 72.0565 53.7055 72.3367 53.872C72.6244 54.031 72.8515 54.2581 73.018 54.5534C73.1922 54.8487 73.2792 55.2045 73.2792 55.6209C73.2792 56.0297 73.1922 56.3856 73.018 56.6884C72.8515 56.9837 72.6244 57.2146 72.3367 57.3811C72.049 57.5401 71.7234 57.6196 71.36 57.6196ZM71.3487 56.6657C71.5077 56.6657 71.6515 56.6278 71.7802 56.5521C71.9089 56.4688 72.0111 56.3515 72.0868 56.2001C72.1625 56.0411 72.2004 55.848 72.2004 55.6209C72.2004 55.3862 72.1625 55.1931 72.0868 55.0417C72.0111 54.8903 71.9089 54.7767 71.7802 54.701C71.6591 54.6178 71.519 54.5761 71.36 54.5761C71.2086 54.5761 71.0685 54.6178 70.9398 54.701C70.8111 54.7767 70.7089 54.8903 70.6332 55.0417C70.5575 55.1931 70.5196 55.3862 70.5196 55.6209C70.5196 55.848 70.5575 56.0411 70.6332 56.2001C70.7089 56.3515 70.8073 56.4688 70.9285 56.5521C71.0572 56.6278 71.1972 56.6657 71.3487 56.6657ZM66.3064 53.3951C65.943 53.3951 65.6137 53.3156 65.3184 53.1566C65.0308 52.9976 64.7998 52.7667 64.6257 52.4638C64.4592 52.161 64.3759 51.8052 64.3759 51.3963C64.3759 50.9875 64.4592 50.6355 64.6257 50.3402C64.7998 50.0374 65.0345 49.8065 65.3298 49.6475C65.6251 49.4885 65.9506 49.409 66.3064 49.409C66.6699 49.409 66.9954 49.4885 67.2831 49.6475C67.5708 49.8065 67.7979 50.0374 67.9645 50.3402C68.1386 50.6355 68.2257 50.9875 68.2257 51.3963C68.2257 51.8052 68.1386 52.161 67.9645 52.4638C67.7979 52.7667 67.5708 52.9976 67.2831 53.1566C66.9954 53.3156 66.6699 53.3951 66.3064 53.3951ZM66.2951 52.4411C66.4541 52.4411 66.5979 52.4033 66.7266 52.3276C66.8553 52.2443 66.9538 52.1269 67.0219 51.9755C67.0976 51.8165 67.1355 51.6235 67.1355 51.3963C67.1355 51.1692 67.0976 50.9762 67.0219 50.8172C66.9538 50.6582 66.8553 50.5408 66.7266 50.4651C66.5979 50.3818 66.4579 50.3402 66.3064 50.3402C66.155 50.3402 66.0112 50.3818 65.8749 50.4651C65.7462 50.5408 65.644 50.6582 65.5683 50.8172C65.4926 50.9762 65.4547 51.1692 65.4547 51.3963C65.4547 51.6235 65.4926 51.8165 65.5683 51.9755C65.644 52.1269 65.7462 52.2443 65.8749 52.3276C66.0036 52.4033 66.1437 52.4411 66.2951 52.4411Z" fill="white"/>
<defs>
<filter id="filter0_d_1_43" x="0.190395" y="0.868534" width="117.619" height="117.619" filterUnits="userSpaceOnUse" color-interpolation-filters="sRGB">
<feFlood flood-opacity="0" result="BackgroundImageFix"/>
<feColorMatrix in="SourceAlpha" type="matrix" values="0 0 0 0 0 0 0 0 0 0 0 0 0 0 0 0 0 0 127 0" result="hardAlpha"/>
<feOffset dy="5.67817"/>
<feGaussianBlur stdDeviation="11.7619"/>
<feColorMatrix type="matrix" values="0 0 0 0 0.6 0 0 0 0 0.890196 0 0 0 0 0.619608 0 0 0 0.2 0"/>
<feBlend mode="normal" in2="BackgroundImageFix" result="effect1_dropShadow_1_43"/>
<feBlend mode="normal" in="SourceGraphic" in2="effect1_dropShadow_1_43" result="shape"/>
</filter>
</defs>
</svg>
