<svg width="518" height="519" viewBox="0 0 518 519" fill="none" xmlns="http://www.w3.org/2000/svg">
<path d="M83.7947 149.835C101.92 119.163 126.714 92.5457 156.467 71.8196C186.22 51.0935 220.224 36.7516 256.133 29.7831C292.042 22.8146 329.002 23.3853 364.464 31.4559C399.926 39.5266 433.045 54.905 461.538 76.5306L389.897 162.945C374.3 151.108 356.171 142.689 336.759 138.272C317.347 133.854 297.115 133.541 277.458 137.356C257.802 141.17 239.188 149.021 222.901 160.367C206.615 171.712 193.042 186.282 183.121 203.072L83.7947 149.835Z" fill="white"/>
<path d="M504.684 365.523C485.405 395.549 459.62 421.286 429.107 440.959C398.594 460.631 364.079 473.771 327.944 479.472C291.808 485.172 254.912 483.299 219.8 473.979C184.687 464.66 152.194 448.117 124.562 425.491L199.431 341.621C214.557 354.007 232.343 363.062 251.564 368.164C270.784 373.265 290.981 374.291 310.762 371.17C330.542 368.05 349.436 360.857 366.138 350.088C382.841 339.32 396.956 325.231 407.509 308.795L504.684 365.523Z" fill="white"/>
<path d="M239.777 266.908L118.562 395.126L86.6377 179.265L239.777 266.908Z" fill="white"/>
<path d="M171.184 277.053L49.9689 405.271L18.0449 189.409L171.184 277.053Z" fill="white"/>
</svg>
