<svg width="592" height="569" viewBox="0 0 592 569" fill="none" xmlns="http://www.w3.org/2000/svg">
<g opacity="0.05">
<path d="M120.749 186.056C138.874 155.384 163.668 128.767 193.421 108.041C223.174 87.3149 257.178 72.973 293.087 66.0045C328.996 59.036 365.956 59.6067 401.418 67.6774C436.88 75.748 469.999 91.1264 498.492 112.752L426.851 199.167C411.254 187.329 393.124 178.911 373.713 174.493C354.301 170.075 334.069 169.763 314.412 173.577C294.756 177.392 276.142 185.243 259.855 196.588C243.568 207.933 229.996 222.504 220.074 239.294L120.749 186.056Z" fill="white"/>
<path d="M541.638 401.744C522.359 431.771 496.574 457.508 466.061 477.18C435.548 496.853 401.033 509.992 364.898 515.693C328.762 521.394 291.866 519.52 256.753 510.201C221.641 500.881 189.148 484.338 161.516 461.713L236.385 377.843C251.51 390.228 269.297 399.284 288.518 404.385C307.738 409.487 327.935 410.512 347.716 407.392C367.496 404.271 386.389 397.078 403.092 386.31C419.795 375.541 433.91 361.453 444.463 345.016L541.638 401.744Z" fill="white"/>
<path d="M276.731 303.13L155.516 431.348L123.592 215.486L276.731 303.13Z" fill="white"/>
<path d="M208.138 313.274L86.9228 441.492L54.9987 225.63L208.138 313.274Z" fill="white"/>
</g>
<g opacity="0.05">
<path d="M120.749 186.056C138.874 155.384 163.668 128.767 193.421 108.041C223.174 87.3149 257.178 72.973 293.087 66.0045C328.996 59.036 365.956 59.6067 401.418 67.6774C436.88 75.748 469.999 91.1264 498.492 112.752L426.851 199.167C411.254 187.329 393.124 178.911 373.713 174.493C354.301 170.075 334.069 169.763 314.412 173.577C294.756 177.392 276.142 185.243 259.855 196.588C243.568 207.933 229.996 222.504 220.074 239.294L120.749 186.056Z" fill="white"/>
<path d="M541.638 401.744C522.359 431.771 496.574 457.508 466.061 477.18C435.548 496.853 401.033 509.992 364.898 515.693C328.762 521.394 291.866 519.52 256.753 510.201C221.641 500.881 189.148 484.338 161.516 461.713L236.385 377.843C251.51 390.228 269.297 399.284 288.518 404.385C307.738 409.487 327.935 410.512 347.716 407.392C367.496 404.271 386.389 397.078 403.092 386.31C419.795 375.541 433.91 361.453 444.463 345.016L541.638 401.744Z" fill="white"/>
<path d="M276.731 303.13L155.516 431.348L123.592 215.486L276.731 303.13Z" fill="white"/>
<path d="M208.138 313.274L86.9228 441.492L54.9987 225.63L208.138 313.274Z" fill="white"/>
</g>
</svg>
